<?xml version="1.0" encoding="UTF-8"?>
<svg xmlns="http://www.w3.org/2000/svg" xmlns:xlink="http://www.w3.org/1999/xlink" version="1.1" viewBox="0 0 696.8 707.4">
  <!-- Generator: Adobe Illustrator 30.2.1, SVG Export Plug-In . SVG Version: 2.1.1 Build 1)  -->
  <g id="ORIG" display="none">
    <image width="778" height="772" transform="translate(-42.7 -24.1)" xlink:href="corry-logo.whiteout-1.png"/>
  </g>
  <g id="Layer_6" display="none">
    <rect x="-12.5" y="-1.5" width="720.5" height="715" fill="#2d80a2"/>
  </g>
  <g id="Layer_1_copy" display="none">
    <rect x="-42.3" y="-21.8" width="778" height="772" fill="#fff"/>
    <path d="M304.1,204.2c-7.6,1.6-23.8,15.5-29.7,21.3s-10,8.5-7.5,12.5c2,1.8,4.8,2.1,7.3,2.7,10.4,2.4,40.2,5.8,49.5,3.1,2.2-.7,5-2,4.3-4.7-1.3-5.2-9.9-27.3-12.8-31.3s-5.9-4.5-11.1-3.4Z" fill="#fff"/>
    <path d="M574.1,211.2c-1.8-1.7-4.6-1.7-4.8,1.2s1.6,4,2,6.1c2.8,17,4.7,48.9,1.7,65.4-4.7,25.4-21,46.8-36,67-1.9,7.5,3.6,4.5,7.5,1.5,39.1-30.6,54.2-89.1,33.5-134.5-.4-1-3.4-6.4-3.8-6.7Z" fill="#fff"/>
    <path d="M429.7,361.4c12.1-7.4,24.7-17.9,34.1-28.4,18.5-20.7,31.4-58.6,56.2-70.8,14.1-7,29.1-.4,27.3,16.3-2.1,20.1-20.9,40.8-28,59s-4.1,11.2,2,11.1c19.4-18.3,59.8-76.9,28.9-99-11.7-8.4-22.9-7.3-35.3-1.4-26.4,12.4-36.8,41.2-52.8,63.2-16.2,22.3-38.5,43-65,52s-20.2,3.7-22.7,7.3-.2,5.4,3.6,6.1c17,3.1,35.5-7,50.5-13.8l1.2-1.5Z" fill="#fff"/>
    <path d="M170.8,261.4c1.8-1.5,20.2-13.5,11.1-14.5-5.4-.6-21.8,9.8-26.8,13.2-23.2,16.2-32.3,31.9-50.2,51.8-13.8,15.4-34.7,28-37.1,50.4,1.8,4.4,2.1,7.8,4.4,12.2,5.5,10.2,25.8,28.5,35.2,36.8,10.2,9.1,21.3,17.5,31.8,26.2,3.8,7.2-2.7,35.3-3.7,44.9s.8,2.9.6,4.6c-2.1,20.1-4.9,40.3-7.8,60.3l.5,3.4c39.9,30.6,85.5,51.1,135.3,59.7,37.1,6.4,76.2,7.7,113.7,4.3,16.1-1.4,32.1-4.5,48-7.1l1.3.3c10.9,21.4,40.8,17.6,52.6-1.3,13-20.7,6.9-60.1-21.4-62.9l-8.5-74c-1.5-.3-2.6,1.7-3.3,2.7-7.7,10.9-8,45.6-6.1,58.8s6,13.2,4.8,15.4c-4.1.6-7.7,7-10.6,7.9-8.7,3-37.1,5.3-47.8,6.2-74.1,6.8-129.5-2.2-195.5-35.5-14.6-7.3-28.9-16-43.1-24l-.7-1.8c2-14.1,3.6-28.4,5.5-42.5s-1.4-5,1.8-7.2c10,6.1,22.8,17.1,35,17.1s47.2-24.1,52.3-36.8.5-37.4-3.3-53.3c-7.3-30.3-20.3-56.9-17.5-89.5.5-6,4.2-17.4,3.9-22s-3.1-6.2-5.8-1.9c-10.1,16-10.5,52.6-7,70.7,4.6,24.4,20.3,57.9,17.9,82.1-1.3,13.1-13.8,22.1-24.3,28.7-8.2,5.2-15.5,8.9-25.1,4.7s-22.8-15.4-29.5-20.5c-15.3-11.5-33-26-46.6-39.4s-17-17.1-19.7-22.3c-7.6-14.6,15-29.9,23.7-39.7,21.4-24.1,36.9-45.1,61.9-66.6Z" fill="#fff"/>
    <path d="M509.3,370.9c-2.3-2.4-13.7,12.5-16,14.5-13,11.4-32.4,17.1-49.5,16.5-3.4-.1-8.6-3-11,1.1-2.1,3.6-4.9,27.9-5.5,33.6-1.9,19.1-2.9,43.6-1.1,62.8s1.4,9.4,3.5,12.5c2.2.5,2-3.3,2.3-4.7,4.1-20,5.1-41.2,9.5-61.5.9-4.2,5.2-23.9,9.3-24.7,12.2,6.5,26,1.3,37.4-4.6,3.1-1.6,11.4-6.3,13.5-8.5,4.9-5,4.3-21.1,5.6-28.4s2.8-5.2,1.9-8.6Z" fill="#fff"/>
    <path d="M297.3,400.9c-3.5,3.8,11.2,14.7,14.1,16.4,16.7,10.1,43.9,9.8,57.9-4.9.3-1.4-1.1-2.4-2.4-2.4-2.4-.1-11.2,2.7-15.1,2.9-10.2.8-20.7.3-30.4-2.5-8.3-2.4-15.7-7.4-24-9.5Z" fill="#fff"/>
    <path d="M170.8,261.4c-25,21.5-40.5,42.5-61.9,66.6s-31.3,25-23.7,39.7,15,17.7,19.7,22.3c13.6,13.4,31.3,27.9,46.6,39.4,6.7,5,22.8,17.5,29.5,20.5,9.7,4.2,16.9.6,25.1-4.7,10.5-6.7,22.9-15.6,24.3-28.7,2.4-24.1-13.2-57.7-17.9-82.1-3.4-18.1-3.1-54.7,7-70.7s5.5-2.4,5.8,1.9-3.4,16-3.9,22c-2.8,32.6,10.2,59.2,17.5,89.5s9.5,37.8,3.3,53.3-38.6,36.7-52.3,36.8-25-11-35-17.1c-3.2,2.2-1.5,4.7-1.8,7.2-1.9,14.2-3.4,28.4-5.5,42.5l.7,1.8c14.2,7.9,28.5,16.6,43.1,24,66.1,33.3,121.4,42.3,195.5,35.5,10.7-1,39-3.2,47.8-6.2s6.4-7.3,10.6-7.9c1.3-2.1-4.3-11.9-4.8-15.4-1.9-13.2-1.5-47.9,6.1-58.8s1.8-3,3.3-2.7l8.5,74c28.3,2.8,34.4,42.2,21.4,62.9-11.8,18.9-41.7,22.7-52.6,1.3l-1.3-.3c-15.9,2.6-31.9,5.7-48,7.1-37.4,3.4-76.6,2.1-113.7-4.3-49.8-8.5-95.4-29-135.3-59.7l-.5-3.4c2.9-20,5.6-40.2,7.8-60.3s-.8-3.2-.6-4.6c1-9.6,7.4-37.7,3.7-44.9-10.5-8.7-21.6-17.1-31.8-26.2-9.3-8.4-29.7-26.6-35.2-36.8s-2.6-7.8-4.4-12.2c2.4-22.4,23.3-35,37.1-50.4,17.9-19.9,27-35.6,50.2-51.8s21.4-13.8,26.8-13.2c9.1,1-9.3,13-11.1,14.5Z"/>
    <path d="M428.3,563.9c-59.5,9.4-118.6,12.4-177-4.5-37.5-10.9-63.2-28.8-97-45-1.8-.9-7.7-4.7-8.1-1-2.2,11.7-3.1,24.6-8.9,35.1-.2,1,.5,1.4,1.1,2,1.5,1.7,12.2,8.2,15.1,9.9,66.6,41.8,139.2,54.4,217.4,48.6,17.9-1.3,35.7-4.6,53.5-7-2.3-13-1.5-25.9,4-38Z"/>
    <path d="M454.1,551.2c-29.5,3.2-34.3,65.3-1.3,65.8s33.7-69.4,1.3-65.8Z"/>
    <path d="M558.8,231.9c-1.4,1.3-3.6.5-3.9-1.3-1.9-10.7-5.4-25.1-19-21.6-5.1,1.3-9.7,6.2-14.2,6.9-14.5,2.3-17.7-6.2-17.5-18.1s-1.3-2.6-2.8-2.3l-57.8,10.2c-.4,0-.8,0-1.2-.1-5.3-2.1-5.7-6.3-.5-9.5s9.6-2.9,6.4-4.7c-22.4-7-44.6-14.4-67.2-20.7-12.3-3.4-25.5-7.2-37.9-10.1-18.3-4.2-28.2-4.3-42.7,3.5-34.2,20.9-62.2,46.2-94.8,68.6-10.5,7.2-7,0-3.1-6.1,16-25.8,58.4-54.6,84.6-70,2.5-1.5,10.9-6.6,16.5-8.1,23.6-6.1,30.5-2.5,55.9,1.7,24.8,6.2,49.9,14.1,74.5,21.4,14,4.2,33.5,13.6,47.6,12.1s22.8-3.8,26.9-5.1,7.2-6,10.4-7.6c22.4-11.6,53.5-4.5,51.4,25.4-.4,5.7-7.9,32.1-11.5,35.4h0Z"/>
    <path d="M429.7,361.4l-1.2,1.5c-14.9,6.8-33.4,16.9-50.5,13.8s-6.3-2.1-3.6-6.1,17.7-5.6,22.7-7.3c26.5-9,48.8-29.7,65-52,16-22,26.4-50.8,52.8-63.2,12.4-5.8,23.6-6.9,35.3,1.4,30.9,22.1-9.5,80.7-28.9,99-6.1,0-3.5-7.4-2-11.1,7.1-18.2,25.9-38.9,28-59,1.7-16.7-13.2-23.3-27.3-16.3-24.8,12.3-37.6,50.2-56.2,70.8-9.5,10.6-22.1,21-34.1,28.4Z"/>
    <path d="M509.3,370.9c.9,3.3-1.4,5.8-1.9,8.6-1.3,7.3-.7,23.4-5.6,28.4s-10.4,6.9-13.5,8.5c-11.4,5.9-25.2,11.1-37.4,4.6-4.1.8-8.4,20.5-9.3,24.7-4.4,20.3-5.4,41.5-9.5,61.5s-.1,5.1-2.3,4.7c-2.1-3.1-3.1-8.7-3.5-12.5-1.9-19.2-.8-43.8,1.1-62.8.6-5.7,3.4-30,5.5-33.6,2.4-4.1,7.5-1.2,11-1.1,17.1.6,36.5-5.1,49.5-16.5s13.7-16.9,16-14.5Z"/>
    <path d="M574.1,211.2c.4.4,3.3,5.7,3.8,6.7,20.7,45.4,5.7,103.9-33.5,134.5-3.9,3-9.4,6.1-7.5-1.5,15-20.2,31.3-41.6,36-67,3.1-16.6,1.1-48.5-1.7-65.4-.3-2.1-2.1-4.1-2-6.1.2-2.9,3-3,4.8-1.2Z"/>
    <path d="M304.1,204.2c5.2-1.1,8.1-.8,11.1,3.4s11.5,26.1,12.8,31.3-2.1,4.1-4.3,4.7c-9.3,2.8-39.1-.6-49.5-3.1-2.5-.6-5.3-.9-7.3-2.7-2.5-4,4.9-10,7.5-12.5,5.9-5.7,22.1-19.7,29.7-21.3Z"/>
    <path d="M303.3,229.9l-1-11-12,8c3,4.8,8.6.7,13,3Z"/>
    <path d="M297.3,400.9c8.4,2.1,15.8,7,24,9.5,9.8,2.9,20.2,3.3,30.4,2.5s12.7-3.1,15.1-2.9,2.7,1.1,2.4,2.4c-14,14.7-41.2,15-57.9,4.9-2.9-1.7-17.6-12.6-14.1-16.4Z"/>
    <path d="M428.3,563.9c-5.5,12.1-6.3,25-4,38-17.8,2.3-35.6,5.7-53.5,7-78.2,5.8-150.8-6.7-217.4-48.6-2.8-1.8-13.6-8.2-15.1-9.9s-1.2-1-1.1-2c5.8-10.5,6.7-23.4,8.9-35.1.5-3.7,6.3.1,8.1,1,33.8,16.3,59.4,34.2,97,45,58.4,16.9,117.6,13.9,177,4.5Z" fill="#fff"/>
    <path d="M454.1,551.2c32.4-3.5,35,66.4-1.3,65.8s-28.2-62.6,1.3-65.8Z" fill="#fff"/>
    <path d="M454.3,558.9l-5,1.6,3,18.4-13.4-7-2.4,5.8,10.9,5.6-12.7,5.9,1.3,3.6,12.4-4-8,14.5,3.5,1.6,1.3-.3,9.1-14.8,4.5,20,4.3-2.6-3.8-17.4,12.5,4.7c7.5-5.7-4.6-7.1-8.2-9.4s-1.8,0-1.3-2.2c3.1-.9,12.8-2.7,12-6.5-1.1-5.4-9.8,1.6-13,2.5-1.3-1.7,5.4-11.7,7-13.5l-5-2.5-7,11-2-15Z" fill="#fff"/>
    <path d="M303.3,229.9c-4.4-2.2-10,1.8-13-3l12-8,1,11Z" fill="#fff"/>
    <path d="M454.3,558.9l2,15,7-11,5,2.5c-1.5,1.8-8.3,11.8-7,13.5,3.2-.9,11.9-7.9,13-2.5.8,3.8-8.9,5.6-12,6.5-.5,2.3.3,1.6,1.3,2.2,3.7,2.3,15.8,3.7,8.2,9.4l-12.5-4.7,3.8,17.4-4.3,2.6-4.5-20-9.1,14.8-1.3.3-3.5-1.6,8-14.5-12.4,4-1.3-3.6,12.7-5.9-10.9-5.6,2.4-5.8,13.4,7-3-18.4,5-1.6Z"/>
  </g>
  <g id="TAG_WHITE" display="none">
    <path d="M574.1,211.2c-1.8-1.7-4.6-1.7-4.8,1.2s1.6,4,2,6.1c2.8,17,4.7,48.9,1.7,65.4-4.7,25.4-21,46.8-36,67-1.9,7.5,3.6,4.5,7.5,1.5,39.1-30.6,54.2-89.1,33.5-134.5-.4-1-3.4-6.4-3.8-6.7Z" fill="#fff"/>
    <path d="M429.7,361.4c12.1-7.4,24.7-17.9,34.1-28.4,18.5-20.7,31.4-58.6,56.2-70.8,14.1-7,29.1-.4,27.3,16.3-2.1,20.1-20.9,40.8-28,59s-4.1,11.2,2,11.1c19.4-18.3,59.8-76.9,28.9-99-11.7-8.4-22.9-7.3-35.3-1.4-26.4,12.4-36.8,41.2-52.8,63.2-16.2,22.3-38.5,43-65,52s-20.2,3.7-22.7,7.3-.2,5.4,3.6,6.1c17,3.1,35.5-7,50.5-13.8l1.2-1.5Z" fill="#fff"/>
    <path d="M453.8,608c-.5-.4-.9-.8-1.4-1.2-2,1.4-4.5,2.3-7.6,2.3-7.1.1-10.7-6.5-9.4-12.4-.4-.7-.7-1.5-1-2.3-1.3-3.2-1.5-6.6-1.7-10.1-.5-7.2,1.4-15.3,9.9-16.5,2.1-.3,3.9,0,5.3.5,0-.3,0-.5.1-.8-.4,0-.8-.1-1.2-.2-5.9-.1-9-4.5-9.3-9.2-.1.3-.3.5-.4.8-.4.8-1,1.5-1.4,2.3-.4.8-.7,1.6-1.1,2.4-.2.5-.9.6-1.3.3-.5-.3-.6-.9-.3-1.3.4-.8.7-1.6,1.1-2.4.4-.7.9-1.4,1.3-2.1.4-.6.8-1.4.9-2.1,0-.3,0-.7-.2-1,0-.4-.2-.7-.2-1.1-.4.3-.8.5-1.2.6-8.7,3-37.1,5.3-47.8,6.2-74.1,6.8-129.5-2.2-195.5-35.5-14.6-7.3-28.9-16-43.1-24l-.7-1.8c2-14.1,3.6-28.4,5.5-42.5.3-2.5-1.4-5,1.8-7.2,10,6.1,22.8,17.1,35,17.1,13.6,0,47.2-24.1,52.3-36.8,6.2-15.5.5-37.4-3.3-53.3-7.3-30.3-20.3-56.9-17.5-89.5.5-6,4.2-17.4,3.9-22-.3-4.3-3.1-6.2-5.8-1.9-10.1,16-10.5,52.6-7,70.7,4.6,24.4,20.3,57.9,17.9,82.1-1.3,13.1-13.8,22.1-24.3,28.7-8.2,5.2-15.5,8.9-25.1,4.7-6.8-2.9-22.8-15.4-29.5-20.5-15.3-11.5-33-26-46.6-39.4-4.7-4.6-17-17.1-19.7-22.3-7.6-14.6,15-29.9,23.7-39.7,21.4-24.1,36.9-45.1,61.9-66.6,1.8-1.5,20.2-13.5,11.1-14.5-5.4-.6-21.8,9.8-26.8,13.2-23.2,16.2-32.3,31.9-50.2,51.8-13.8,15.4-34.7,28-37.1,50.4,1.8,4.4,2.1,7.8,4.4,12.2,5.5,10.2,25.8,28.5,35.2,36.8,10.2,9.1,21.3,17.5,31.8,26.2,3.8,7.2-2.7,35.3-3.7,44.9-.2,1.4.8,2.9.6,4.6-2.1,20.1-4.9,40.3-7.8,60.3l.5,3.4c39.9,30.6,85.5,51.1,135.3,59.7,37.1,6.4,76.2,7.7,113.7,4.3,16.1-1.4,32.1-4.5,48-7.1h.1c.2,0,.5,0,.7-.1.2,0,.4,0,.6-.1,1.2-.6,2.6-1,4.2-1,3.4-.9,7.2-.2,9.5,2.5,0,0,.1.1.2.2.4,0,1.2.3,1.3.3.7,0,2.4.2,3.8.3,3.2.1,6.2.1,9.2-.6-.6-.4-1.2-.8-1.7-1.3Z" fill="#fff"/>
    <path d="M428.9,565.5s0,0,0,0c0,0,0,0,0,0,0,0-.2,0-.2,0s0,0,0,0c0,0,0,0,0,0" fill="#fff"/>
    <path d="M458.3,543.9l-8.5-74c-1.5-.3-2.6,1.7-3.3,2.7-7.7,10.9-8,45.6-6.1,58.8.5,3.4,5.9,13,4.8,15.3.2.3.3.6.4.9.5,0,1-.1,1.5-.1.9,0,1.8.1,2.6.3.3,0,.6,0,.9,0,.4,0,.8,0,1.1,0s.3,0,.4,0c.9-.6,1.9-1.1,3-1.4.8-.2,1.6-.3,2.4-.3.4-.7.8-1.4,1.3-2-.2,0-.4,0-.6,0Z" fill="#fff"/>
    <path d="M509.3,370.9c-2.3-2.4-13.7,12.5-16,14.5-13,11.4-32.4,17.1-49.5,16.5-3.4-.1-8.6-3-11,1.1-2.1,3.6-4.9,27.9-5.5,33.6-1.9,19.1-2.9,43.6-1.1,62.8s1.4,9.4,3.5,12.5c2.2.5,2-3.3,2.3-4.7,4.1-20,5.1-41.2,9.5-61.5.9-4.2,5.2-23.9,9.3-24.7,12.2,6.5,26,1.3,37.4-4.6,3.1-1.6,11.4-6.3,13.5-8.5,4.9-5,4.3-21.1,5.6-28.4s2.8-5.2,1.9-8.6Z" fill="#fff"/>
    <path d="M297.3,400.9c-3.5,3.8,11.2,14.7,14.1,16.4,16.7,10.1,43.9,9.8,57.9-4.9.3-1.4-1.1-2.4-2.4-2.4-2.4-.1-11.2,2.7-15.1,2.9-10.2.8-20.7.3-30.4-2.5-8.3-2.4-15.7-7.4-24-9.5Z" fill="#fff"/>
    <path d="M558.8,231.9c-1.4,1.3-3.6.5-3.9-1.3-1.9-10.7-5.4-25.1-19-21.6-5.1,1.3-9.7,6.2-14.2,6.9-14.5,2.3-17.7-6.2-17.5-18.1s-1.3-2.6-2.8-2.3l-57.8,10.2c-.4,0-.8,0-1.2-.1-5.3-2.1-5.7-6.3-.5-9.5.9-.6,9.6-2.9,6.4-4.7-22.4-7-44.6-14.4-67.2-20.7-12.3-3.4-25.1-7.8-37.8-9.3s-12.5-1.7-17.5-1.6c-12.2.2-23.4,3-33.2,9.4-30.8,19.9-56.9,43-86.9,63.7-10.5,7.2-7,0-3.1-6.1,16-25.8,56.4-52.9,82.6-68.3,2.5-1.5,16.4-6.7,22.1-7.8,32.4-6.3,54.2,2.2,75.3,7.6,24.8,6.2,27,6.2,51.6,13.6,14,4.2,33.5,13.6,47.6,12.1s22.8-3.8,26.9-5.1,7.2-6,10.4-7.6c22.4-11.6,53.5-4.5,51.4,25.4-.4,5.7-7.9,32.1-11.5,35.4h0Z" fill="#fff"/>
    <path d="M429.7,361.4l-1.2,1.5c-14.9,6.8-33.4,16.9-50.5,13.8s-6.3-2.1-3.6-6.1,17.7-5.6,22.7-7.3c26.5-9,48.8-29.7,65-52,16-22,26.4-50.8,52.8-63.2,12.4-5.8,23.6-6.9,35.3,1.4,30.9,22.1-9.5,80.7-28.9,99-6.1,0-3.5-7.4-2-11.1,7.1-18.2,25.9-38.9,28-59,1.7-16.7-13.2-23.3-27.3-16.3-24.8,12.3-37.6,50.2-56.2,70.8-9.5,10.6-22.1,21-34.1,28.4Z" fill="#fff"/>
    <path d="M509.3,370.9c.9,3.3-1.4,5.8-1.9,8.6-1.3,7.3-.7,23.4-5.6,28.4s-10.4,6.9-13.5,8.5c-11.4,5.9-25.2,11.1-37.4,4.6-4.1.8-8.4,20.5-9.3,24.7-4.4,20.3-5.4,41.5-9.5,61.5s-.1,5.1-2.3,4.7c-2.1-3.1-3.1-8.7-3.5-12.5-1.9-19.2-.8-43.8,1.1-62.8.6-5.7,3.4-30,5.5-33.6,2.4-4.1,7.5-1.2,11-1.1,17.1.6,36.5-5.1,49.5-16.5s13.7-16.9,16-14.5Z" fill="#fff"/>
    <path d="M574.1,211.2c.4.4,3.3,5.7,3.8,6.7,20.7,45.4,5.7,103.9-33.5,134.5-3.9,3-9.4,6.1-7.5-1.5,15-20.2,31.3-41.6,36-67,3.1-16.6,1.1-48.5-1.7-65.4-.3-2.1-2.1-4.1-2-6.1.2-2.9,3-3,4.8-1.2Z" fill="#fff"/>
    <path d="M297.3,400.9c8.4,2.1,15.8,7,24,9.5,9.8,2.9,20.2,3.3,30.4,2.5s12.7-3.1,15.1-2.9,2.7,1.1,2.4,2.4c-14,14.7-41.2,15-57.9,4.9-2.9-1.7-17.6-12.6-14.1-16.4Z" fill="#fff"/>
    <path d="M429.4,563.8" fill="#fff"/>
    <path d="M426.4,606.7c-.7-1.5-1.3-3.2-1.8-5,0,0,0,0,0,0,0,0-.2,0-.3,0,0,0,0,.1,0,.2-17.8,2.3-35.6,5.7-53.5,7-78.2,5.8-150.8-6.7-217.4-48.6-2.8-1.8-13.6-8.2-15.1-9.9-.5-.6-1.2-1-1.1-2,5.8-10.5,6.7-23.4,8.9-35.1.5-3.7,6.3.1,8.1,1,33.8,16.3,59.4,34.2,97,45,58.4,16.9,117.6,13.9,177,4.5h.2c1.6-3.3,3.4-6.4,5.7-9.1-9.1,2.9-36.9,5.1-47.4,6.1-74.1,6.8-129.5-2.2-195.5-35.5-14.6-7.3-28.9-16-43.1-24l-.7-1.8c2-14.1,3.6-28.4,5.5-42.5.3-2.5-1.4-5,1.8-7.2,10,6.1,22.8,17.1,35,17.1,13.6,0,47.2-24.1,52.3-36.8,6.2-15.5.5-37.4-3.3-53.3-7.3-30.3-20.3-56.9-17.5-89.5.5-6,4.2-17.4,3.9-22-.3-4.3-3.1-6.2-5.8-1.9-10.1,16-10.5,52.6-7,70.7,4.6,24.4,20.3,57.9,17.9,82.1-1.3,13.1-13.8,22.1-24.3,28.7-8.2,5.2-15.5,8.9-25.1,4.7-6.8-2.9-22.8-15.4-29.5-20.5-15.3-11.5-33-26-46.6-39.4-4.7-4.6-17-17.1-19.7-22.3-7.6-14.6,15-29.9,23.7-39.7,21.4-24.1,36.9-45.1,61.9-66.6,1.8-1.5,20.2-13.5,11.1-14.5-5.4-.6-21.8,9.8-26.8,13.2-23.2,16.2-32.3,31.9-50.2,51.8-13.8,15.4-34.7,28-37.1,50.4,1.8,4.4,2.1,7.8,4.4,12.2,5.5,10.2,25.8,28.5,35.2,36.8,10.2,9.1,21.3,17.5,31.8,26.2,3.8,7.2-2.7,35.3-3.7,44.9-.2,1.4.8,2.9.6,4.6-2.1,20.1-4.9,40.3-7.8,60.3l.5,3.4c39.9,30.6,85.5,51.1,135.3,59.7,37.1,6.4,76.2,7.7,113.7,4.3,16.1-1.4,32.1-4.5,48-7.1h.1c.2,0,.5,0,.7-.1,0,0,.1,0,.2,0l-.5-.9Z" fill="#fff"/>
    <path d="M445.3,546.3c3.5-1.5,7.4-2.4,11.8-2.4s.8,0,1.2,0h0l-8.5-74c-1.5-.3-2.6,1.7-3.3,2.7-7.7,10.9-8,45.6-6.1,58.8.5,3.3,5.4,12.1,4.9,14.9Z" fill="#fff"/>
    <path d="M327.9,239c-1.3-5.2-9.9-27.3-12.8-31.3-3-4.3-5.9-4.5-11.1-3.4-7.6,1.6-23.8,15.5-29.7,21.3-2.6,2.6-10,8.5-7.5,12.5,2,1.8,4.8,2.1,7.3,2.7,10.4,2.4,40.2,5.8,49.5,3.1,2.2-.7,5-2,4.3-4.7Z" fill="none"/>
    <path d="M327.9,239c-1.3-5.2-9.9-27.3-12.8-31.3-3-4.3-5.9-4.5-11.1-3.4-7.6,1.6-23.8,15.5-29.7,21.3-2.6,2.6-10,8.5-7.5,12.5,2,1.8,4.8,2.1,7.3,2.7,10.4,2.4,40.2,5.8,49.5,3.1,2.2-.7,5-2,4.3-4.7ZM290.3,227l12-8,1,11c-4.4-2.2-10,1.8-13-3Z" fill="#fff"/>
  </g>
  <g id="TAG_DARK" display="none">
    <path d="M574.1,211.2c-1.8-1.7-4.6-1.7-4.8,1.2s1.6,4,2,6.1c2.8,17,4.7,48.9,1.7,65.4-4.7,25.4-21,46.8-36,67-1.9,7.5,3.6,4.5,7.5,1.5,39.1-30.6,54.2-89.1,33.5-134.5-.4-1-3.4-6.4-3.8-6.7Z" fill="#fff"/>
    <path d="M429.7,361.4c12.1-7.4,24.7-17.9,34.1-28.4,18.5-20.7,31.4-58.6,56.2-70.8,14.1-7,29.1-.4,27.3,16.3-2.1,20.1-20.9,40.8-28,59s-4.1,11.2,2,11.1c19.4-18.3,59.8-76.9,28.9-99-11.7-8.4-22.9-7.3-35.3-1.4-26.4,12.4-36.8,41.2-52.8,63.2-16.2,22.3-38.5,43-65,52s-20.2,3.7-22.7,7.3-.2,5.4,3.6,6.1c17,3.1,35.5-7,50.5-13.8l1.2-1.5Z" fill="#fff"/>
    <path d="M453.8,608c-.5-.4-.9-.8-1.4-1.2-2,1.4-4.5,2.3-7.6,2.3-7.1.1-10.7-6.5-9.4-12.4-.4-.7-.7-1.5-1-2.3-1.3-3.2-1.5-6.6-1.7-10.1-.5-7.2,1.4-15.3,9.9-16.5,2.1-.3,3.9,0,5.3.5,0-.3,0-.5.1-.8-.4,0-.8-.1-1.2-.2-5.9-.1-9-4.5-9.3-9.2-.1.3-.3.5-.4.8-.4.8-1,1.5-1.4,2.3-.4.8-.7,1.6-1.1,2.4-.2.5-.9.6-1.3.3-.5-.3-.6-.9-.3-1.3.4-.8.7-1.6,1.1-2.4.4-.7.9-1.4,1.3-2.1.4-.6.8-1.4.9-2.1,0-.3,0-.7-.2-1,0-.4-.2-.7-.2-1.1-.4.3-.8.5-1.2.6-8.7,3-37.1,5.3-47.8,6.2-74.1,6.8-129.5-2.2-195.5-35.5-14.6-7.3-28.9-16-43.1-24l-.7-1.8c2-14.1,3.6-28.4,5.5-42.5.3-2.5-1.4-5,1.8-7.2,10,6.1,22.8,17.1,35,17.1,13.6,0,47.2-24.1,52.3-36.8,6.2-15.5.5-37.4-3.3-53.3-7.3-30.3-20.3-56.9-17.5-89.5.5-6,4.2-17.4,3.9-22-.3-4.3-3.1-6.2-5.8-1.9-10.1,16-10.5,52.6-7,70.7,4.6,24.4,20.3,57.9,17.9,82.1-1.3,13.1-13.8,22.1-24.3,28.7-8.2,5.2-15.5,8.9-25.1,4.7-6.8-2.9-22.8-15.4-29.5-20.5-15.3-11.5-33-26-46.6-39.4-4.7-4.6-17-17.1-19.7-22.3-7.6-14.6,15-29.9,23.7-39.7,21.4-24.1,36.9-45.1,61.9-66.6,1.8-1.5,20.2-13.5,11.1-14.5-5.4-.6-21.8,9.8-26.8,13.2-23.2,16.2-32.3,31.9-50.2,51.8-13.8,15.4-34.7,28-37.1,50.4,1.8,4.4,2.1,7.8,4.4,12.2,5.5,10.2,25.8,28.5,35.2,36.8,10.2,9.1,21.3,17.5,31.8,26.2,3.8,7.2-2.7,35.3-3.7,44.9-.2,1.4.8,2.9.6,4.6-2.1,20.1-4.9,40.3-7.8,60.3l.5,3.4c39.9,30.6,85.5,51.1,135.3,59.7,37.1,6.4,76.2,7.7,113.7,4.3,16.1-1.4,32.1-4.5,48-7.1h.1c.2,0,.5,0,.7-.1.2,0,.4,0,.6-.1,1.2-.6,2.6-1,4.2-1,3.4-.9,7.2-.2,9.5,2.5,0,0,.1.1.2.2.4,0,1.2.3,1.3.3.7,0,2.4.2,3.8.3,3.2.1,6.2.1,9.2-.6-.6-.4-1.2-.8-1.7-1.3Z" fill="#fff"/>
    <path d="M428.9,565.5s0,0,0,0c0,0,0,0,0,0,0,0-.2,0-.2,0s0,0,0,0c0,0,0,0,0,0" fill="#fff"/>
    <path d="M458.3,543.9l-8.5-74c-1.5-.3-2.6,1.7-3.3,2.7-7.7,10.9-8,45.6-6.1,58.8.5,3.4,5.9,13,4.8,15.3.2.3.3.6.4.9.5,0,1-.1,1.5-.1.9,0,1.8.1,2.6.3.3,0,.6,0,.9,0,.4,0,.8,0,1.1,0s.3,0,.4,0c.9-.6,1.9-1.1,3-1.4.8-.2,1.6-.3,2.4-.3.4-.7.8-1.4,1.3-2-.2,0-.4,0-.6,0Z" fill="#fff"/>
    <path d="M509.3,370.9c-2.3-2.4-13.7,12.5-16,14.5-13,11.4-32.4,17.1-49.5,16.5-3.4-.1-8.6-3-11,1.1-2.1,3.6-4.9,27.9-5.5,33.6-1.9,19.1-2.9,43.6-1.1,62.8s1.4,9.4,3.5,12.5c2.2.5,2-3.3,2.3-4.7,4.1-20,5.1-41.2,9.5-61.5.9-4.2,5.2-23.9,9.3-24.7,12.2,6.5,26,1.3,37.4-4.6,3.1-1.6,11.4-6.3,13.5-8.5,4.9-5,4.3-21.1,5.6-28.4s2.8-5.2,1.9-8.6Z" fill="#fff"/>
    <path d="M297.3,400.9c-3.5,3.8,11.2,14.7,14.1,16.4,16.7,10.1,43.9,9.8,57.9-4.9.3-1.4-1.1-2.4-2.4-2.4-2.4-.1-11.2,2.7-15.1,2.9-10.2.8-20.7.3-30.4-2.5-8.3-2.4-15.7-7.4-24-9.5Z" fill="#fff"/>
    <path d="M558.8,231.9c-1.4,1.3-3.6.5-3.9-1.3-1.9-10.7-5.4-25.1-19-21.6-5.1,1.3-9.7,6.2-14.2,6.9-14.5,2.3-17.7-6.2-17.5-18.1s-1.3-2.6-2.8-2.3l-57.8,10.2c-.4,0-.8,0-1.2-.1-5.3-2.1-5.7-6.3-.5-9.5.9-.6,9.6-2.9,6.4-4.7-22.4-7-44.6-14.4-67.2-20.7-12.3-3.4-25.1-7.8-37.8-9.3s-12.5-1.7-17.5-1.6c-12.2.2-23.4,3-33.2,9.4-30.8,19.9-56.9,43-86.9,63.7-10.5,7.2-7,0-3.1-6.1,16-25.8,56.4-52.9,82.6-68.3,2.5-1.5,16.4-6.7,22.1-7.8,32.4-6.3,54.2,2.2,75.3,7.6,24.8,6.2,27,6.2,51.6,13.6,14,4.2,33.5,13.6,47.6,12.1s22.8-3.8,26.9-5.1,7.2-6,10.4-7.6c22.4-11.6,53.5-4.5,51.4,25.4-.4,5.7-7.9,32.1-11.5,35.4h0Z" fill="#fff"/>
    <path d="M429.7,361.4l-1.2,1.5c-14.9,6.8-33.4,16.9-50.5,13.8s-6.3-2.1-3.6-6.1,17.7-5.6,22.7-7.3c26.5-9,48.8-29.7,65-52,16-22,26.4-50.8,52.8-63.2,12.4-5.8,23.6-6.9,35.3,1.4,30.9,22.1-9.5,80.7-28.9,99-6.1,0-3.5-7.4-2-11.1,7.1-18.2,25.9-38.9,28-59,1.7-16.7-13.2-23.3-27.3-16.3-24.8,12.3-37.6,50.2-56.2,70.8-9.5,10.6-22.1,21-34.1,28.4Z" fill="#fff"/>
    <path d="M509.3,370.9c.9,3.3-1.4,5.8-1.9,8.6-1.3,7.3-.7,23.4-5.6,28.4s-10.4,6.9-13.5,8.5c-11.4,5.9-25.2,11.1-37.4,4.6-4.1.8-8.4,20.5-9.3,24.7-4.4,20.3-5.4,41.5-9.5,61.5s-.1,5.1-2.3,4.7c-2.1-3.1-3.1-8.7-3.5-12.5-1.9-19.2-.8-43.8,1.1-62.8.6-5.7,3.4-30,5.5-33.6,2.4-4.1,7.5-1.2,11-1.1,17.1.6,36.5-5.1,49.5-16.5s13.7-16.9,16-14.5Z" fill="#fff"/>
    <path d="M574.1,211.2c.4.4,3.3,5.7,3.8,6.7,20.7,45.4,5.7,103.9-33.5,134.5-3.9,3-9.4,6.1-7.5-1.5,15-20.2,31.3-41.6,36-67,3.1-16.6,1.1-48.5-1.7-65.4-.3-2.1-2.1-4.1-2-6.1.2-2.9,3-3,4.8-1.2Z" fill="#fff"/>
    <path d="M297.3,400.9c8.4,2.1,15.8,7,24,9.5,9.8,2.9,20.2,3.3,30.4,2.5s12.7-3.1,15.1-2.9,2.7,1.1,2.4,2.4c-14,14.7-41.2,15-57.9,4.9-2.9-1.7-17.6-12.6-14.1-16.4Z" fill="#fff"/>
    <path d="M429.4,563.8" fill="#fff"/>
    <path d="M426.4,606.7c-.7-1.5-1.3-3.2-1.8-5,0,0,0,0,0,0,0,0-.2,0-.3,0,0,0,0,.1,0,.2-17.8,2.3-35.6,5.7-53.5,7-78.2,5.8-150.8-6.7-217.4-48.6-2.8-1.8-13.6-8.2-15.1-9.9-.5-.6-1.2-1-1.1-2,5.8-10.5,6.7-23.4,8.9-35.1.5-3.7,6.3.1,8.1,1,33.8,16.3,59.4,34.2,97,45,58.4,16.9,117.6,13.9,177,4.5h.2c1.6-3.3,3.4-6.4,5.7-9.1-9.1,2.9-36.9,5.1-47.4,6.1-74.1,6.8-129.5-2.2-195.5-35.5-14.6-7.3-28.9-16-43.1-24l-.7-1.8c2-14.1,3.6-28.4,5.5-42.5.3-2.5-1.4-5,1.8-7.2,10,6.1,22.8,17.1,35,17.1,13.6,0,47.2-24.1,52.3-36.8,6.2-15.5.5-37.4-3.3-53.3-7.3-30.3-20.3-56.9-17.5-89.5.5-6,4.2-17.4,3.9-22-.3-4.3-3.1-6.2-5.8-1.9-10.1,16-10.5,52.6-7,70.7,4.6,24.4,20.3,57.9,17.9,82.1-1.3,13.1-13.8,22.1-24.3,28.7-8.2,5.2-15.5,8.9-25.1,4.7-6.8-2.9-22.8-15.4-29.5-20.5-15.3-11.5-33-26-46.6-39.4-4.7-4.6-17-17.1-19.7-22.3-7.6-14.6,15-29.9,23.7-39.7,21.4-24.1,36.9-45.1,61.9-66.6,1.8-1.5,20.2-13.5,11.1-14.5-5.4-.6-21.8,9.8-26.8,13.2-23.2,16.2-32.3,31.9-50.2,51.8-13.8,15.4-34.7,28-37.1,50.4,1.8,4.4,2.1,7.8,4.4,12.2,5.5,10.2,25.8,28.5,35.2,36.8,10.2,9.1,21.3,17.5,31.8,26.2,3.8,7.2-2.7,35.3-3.7,44.9-.2,1.4.8,2.9.6,4.6-2.1,20.1-4.9,40.3-7.8,60.3l.5,3.4c39.9,30.6,85.5,51.1,135.3,59.7,37.1,6.4,76.2,7.7,113.7,4.3,16.1-1.4,32.1-4.5,48-7.1h.1c.2,0,.5,0,.7-.1,0,0,.1,0,.2,0l-.5-.9Z" fill="#fff"/>
    <path d="M445.3,546.3c3.5-1.5,7.4-2.4,11.8-2.4s.8,0,1.2,0h0l-8.5-74c-1.5-.3-2.6,1.7-3.3,2.7-7.7,10.9-8,45.6-6.1,58.8.5,3.3,5.4,12.1,4.9,14.9Z" fill="#fff"/>
    <path d="M327.9,239c-1.3-5.2-9.9-27.3-12.8-31.3-3-4.3-5.9-4.5-11.1-3.4-7.6,1.6-23.8,15.5-29.7,21.3-2.6,2.6-10,8.5-7.5,12.5,2,1.8,4.8,2.1,7.3,2.7,10.4,2.4,40.2,5.8,49.5,3.1,2.2-.7,5-2,4.3-4.7Z" fill="none"/>
    <path d="M327.9,239c-1.3-5.2-9.9-27.3-12.8-31.3-3-4.3-5.9-4.5-11.1-3.4-7.6,1.6-23.8,15.5-29.7,21.3-2.6,2.6-10,8.5-7.5,12.5,2,1.8,4.8,2.1,7.3,2.7,10.4,2.4,40.2,5.8,49.5,3.1,2.2-.7,5-2,4.3-4.7ZM290.3,227l12-8,1,11c-4.4-2.2-10,1.8-13-3Z" fill="#fff"/>
  </g>
  <g id="Layer_10" display="none">
    <text transform="translate(46.2 293.8) rotate(-72.8)" font-family="RooneySans-Medium, RooneySans" font-size="82" font-weight="500"><tspan x="0" y="0">C</tspan></text>
    <text transform="translate(59.1 249.7) rotate(-63)" font-family="RooneySans-Medium, RooneySans" font-size="82" font-weight="500"><tspan x="0" y="0">O</tspan></text>
    <text transform="translate(85.8 198.1) rotate(-53.3)" font-family="RooneySans-Medium, RooneySans" font-size="82" font-weight="500"><tspan x="0" y="0">R</tspan></text>
    <text transform="translate(113.5 160.7) rotate(-44.7)" font-family="RooneySans-Medium, RooneySans" font-size="82" font-weight="500"><tspan x="0" y="0">R</tspan></text>
    <text transform="translate(146.6 128) rotate(-36.3)" font-family="RooneySans-Medium, RooneySans" font-size="82" font-weight="500"><tspan x="0" y="0">Y</tspan></text>
    <text transform="translate(183 102) rotate(-30)" font-family="RooneySans-Medium, RooneySans" font-size="82" font-weight="500"><tspan x="0" y="0">’</tspan></text>
    <text transform="translate(202.6 89.9) rotate(-23.8)" font-family="RooneySans-Medium, RooneySans" font-size="82" font-weight="500"><tspan x="0" y="0">S</tspan></text>
    <text transform="translate(243.1 72.7) rotate(-17.6)" font-family="RooneySans-Medium, RooneySans" font-size="82" font-weight="500"><tspan x="0" y="0"> </tspan></text>
    <text transform="translate(263.3 65.8) rotate(-11.8)" font-family="RooneySans-Medium, RooneySans" font-size="82" font-weight="500"><tspan x="0" y="0">F</tspan></text>
    <text transform="translate(301.7 56.9) rotate(-2.7)" font-family="RooneySans-Medium, RooneySans" font-size="82" font-weight="500"><tspan x="0" y="0">O</tspan></text>
    <text transform="translate(359.5 54.1) rotate(7.7)" font-family="RooneySans-Medium, RooneySans" font-size="82" font-weight="500"><tspan x="0" y="0">U</tspan></text>
    <text transform="translate(414 61.1) rotate(18.2)" font-family="RooneySans-Medium, RooneySans" font-size="82" font-weight="500"><tspan x="0" y="0">N</tspan></text>
    <text transform="translate(468.9 79.2) rotate(28.7)" font-family="RooneySans-Medium, RooneySans" font-size="82" font-weight="500"><tspan x="0" y="0">D</tspan></text>
    <text transform="translate(516.7 105.5) rotate(38.3)" font-family="RooneySans-Medium, RooneySans" font-size="82" font-weight="500"><tspan x="0" y="0">A</tspan></text>
    <text transform="translate(555.3 136.2) rotate(47)" font-family="RooneySans-Medium, RooneySans" font-size="82" font-weight="500"><tspan x="0" y="0">T</tspan></text>
    <text transform="translate(585.4 169.3) rotate(53.3)" font-family="RooneySans-Medium, RooneySans" font-size="82" font-weight="500"><tspan x="0" y="0">I</tspan></text>
    <text transform="translate(600 186.8) rotate(60.9)" font-family="RooneySans-Medium, RooneySans" font-size="82" font-weight="500"><tspan x="0" y="0">O</tspan></text>
    <text transform="translate(628.3 237.2) rotate(71.7)" font-family="RooneySans-Medium, RooneySans" font-size="82" font-weight="500"><tspan x="0" y="0">N</tspan></text>
    <circle cx="13.7" cy="344.1" r="6.5"/>
    <circle cx="678.9" cy="344.1" r="6.5"/>
  </g>
  <g id="Text_BOT" display="none">
    <text transform="translate(1.2 408) rotate(79.9)" font-family="RooneySans-Bold, RooneySans" font-size="45" font-weight="700"><tspan x="0" y="0">H</tspan></text>
    <text transform="translate(7.5 442.6) rotate(73.9)" font-family="RooneySans-Bold, RooneySans" font-size="45" font-weight="700"><tspan x="0" y="0">O</tspan></text>
    <text transform="translate(17.8 477.8) rotate(67.8)" font-family="RooneySans-Bold, RooneySans" font-size="45" font-weight="700"><tspan x="0" y="0">N</tspan></text>
    <text transform="translate(31.8 511.6) rotate(61.8)" font-family="RooneySans-Bold, RooneySans" font-size="45" font-weight="700"><tspan x="0" y="0">O</tspan></text>
    <text transform="translate(49.4 543.7) rotate(56.3)" font-family="RooneySans-Bold, RooneySans" font-size="45" font-weight="700"><tspan x="0" y="0">R</tspan></text>
    <text transform="translate(66.1 568.2) rotate(52.5)" font-family="RooneySans-Bold, RooneySans" font-size="45" font-weight="700"><tspan x="0" y="0">I</tspan></text>
    <text transform="translate(75.9 581.3) rotate(48.2)" font-family="RooneySans-Bold, RooneySans" font-size="45" font-weight="700"><tspan x="0" y="0">N</tspan></text>
    <text transform="translate(100.4 608.4) rotate(42.4)" font-family="RooneySans-Bold, RooneySans" font-size="45" font-weight="700"><tspan x="0" y="0">G</tspan></text>
    <text transform="translate(125.5 630.8) rotate(38.5)" font-family="RooneySans-Bold, RooneySans" font-size="45" font-weight="700"><tspan x="0" y="0"> </tspan></text>
    <text transform="translate(136.8 640) rotate(34.4)" font-family="RooneySans-Bold, RooneySans" font-size="45" font-weight="700"><tspan x="0" y="0">H</tspan></text>
    <text transform="translate(165.7 659.5) rotate(29.3)" font-family="RooneySans-Bold, RooneySans" font-size="45" font-weight="700"><tspan x="0" y="0">E</tspan></text>
    <text transform="translate(189.2 672.7) rotate(24.6)" font-family="RooneySans-Bold, RooneySans" font-size="45" font-weight="700"><tspan x="0" y="0">R</tspan></text>
    <text transform="translate(216.7 685.2) rotate(19.1)" font-family="RooneySans-Bold, RooneySans" font-size="45" font-weight="700"><tspan x="0" y="0">O</tspan></text>
    <text transform="translate(251.3 696.8) rotate(13.8)" font-family="RooneySans-Bold, RooneySans" font-size="45" font-weight="700"><tspan x="0" y="0">E</tspan></text>
    <text transform="translate(277.4 703.2) rotate(9.3)" font-family="RooneySans-Bold, RooneySans" font-size="45" font-weight="700"><tspan x="0" y="0">S</tspan></text>
    <text transform="translate(304.5 707.3) rotate(5.9)" font-family="RooneySans-Bold, RooneySans" font-size="45" font-weight="700"><tspan x="0" y="0"> </tspan></text>
    <text transform="translate(319.1 709.4) rotate(.9)" font-family="RooneySans-Bold, RooneySans" font-size="45" font-weight="700"><tspan x="0" y="0">—</tspan></text>
    <text transform="translate(367.3 709.2) rotate(-4.4)" font-family="RooneySans-Bold, RooneySans" font-size="45" font-weight="700"><tspan x="0" y="0"> </tspan></text>
    <text transform="translate(381.6 708.2) rotate(-7.7)" font-family="RooneySans-Bold, RooneySans" font-size="45" font-weight="700"><tspan x="0" y="0">E</tspan></text>
    <text transform="translate(408.7 704.8) rotate(-13.7)" font-family="RooneySans-Bold, RooneySans" font-size="45" font-weight="700"><tspan x="0" y="0">M</tspan></text>
    <text transform="translate(452 693.7) rotate(-19.8)" font-family="RooneySans-Bold, RooneySans" font-size="45" font-weight="700"><tspan x="0" y="0">P</tspan></text>
    <text transform="translate(479.1 684) rotate(-25.2)" font-family="RooneySans-Bold, RooneySans" font-size="45" font-weight="700"><tspan x="0" y="0">O</tspan></text>
    <text transform="translate(512.6 668.3) rotate(-32.1)" font-family="RooneySans-Bold, RooneySans" font-size="45" font-weight="700"><tspan x="0" y="0">W</tspan></text>
    <text transform="translate(551.7 643) rotate(-38.2)" font-family="RooneySans-Bold, RooneySans" font-size="45" font-weight="700"><tspan x="0" y="0">E</tspan></text>
    <text transform="translate(572.8 626.3) rotate(-42.8)" font-family="RooneySans-Bold, RooneySans" font-size="45" font-weight="700"><tspan x="0" y="0">R</tspan></text>
    <text transform="translate(594.4 605.9) rotate(-46.6)" font-family="RooneySans-Bold, RooneySans" font-size="45" font-weight="700"><tspan x="0" y="0">I</tspan></text>
    <text transform="translate(605.8 594.2) rotate(-50.9)" font-family="RooneySans-Bold, RooneySans" font-size="45" font-weight="700"><tspan x="0" y="0">N</tspan></text>
    <text transform="translate(628.7 565.7) rotate(-56.7)" font-family="RooneySans-Bold, RooneySans" font-size="45" font-weight="700"><tspan x="0" y="0">G</tspan></text>
    <text transform="translate(646.8 537.3) rotate(-60.6)" font-family="RooneySans-Bold, RooneySans" font-size="45" font-weight="700"><tspan x="0" y="0"> </tspan></text>
    <text transform="translate(653.9 524.9) rotate(-63.9)" font-family="RooneySans-Bold, RooneySans" font-size="45" font-weight="700"><tspan x="0" y="0">L</tspan></text>
    <text transform="translate(664.7 502.5) rotate(-67.3)" font-family="RooneySans-Bold, RooneySans" font-size="45" font-weight="700"><tspan x="0" y="0">I</tspan></text>
    <text transform="translate(671.1 487.6) rotate(-71.1)" font-family="RooneySans-Bold, RooneySans" font-size="45" font-weight="700"><tspan x="0" y="0">V</tspan></text>
    <text transform="translate(680.7 458.7) rotate(-75.9)" font-family="RooneySans-Bold, RooneySans" font-size="45" font-weight="700"><tspan x="0" y="0">E</tspan></text>
    <text transform="translate(687.2 432.6) rotate(-80.4)" font-family="RooneySans-Bold, RooneySans" font-size="45" font-weight="700"><tspan x="0" y="0">S</tspan></text>
  </g>
  <g id="Text_TOP" display="none">
    <text transform="translate(44.6 297.9) rotate(-73.7)" font-family="RooneySans-Bold, RooneySans" font-size="80" font-weight="700"><tspan x="0" y="0">C</tspan></text>
    <text transform="translate(57 253.6) rotate(-63.9)" font-family="RooneySans-Bold, RooneySans" font-size="80" font-weight="700"><tspan x="0" y="0">O</tspan></text>
    <text transform="translate(83.1 201.2) rotate(-54.1)" font-family="RooneySans-Bold, RooneySans" font-size="80" font-weight="700"><tspan x="0" y="0">R</tspan></text>
    <text transform="translate(111 162.6) rotate(-45.3)" font-family="RooneySans-Bold, RooneySans" font-size="80" font-weight="700"><tspan x="0" y="0">R</tspan></text>
    <text transform="translate(144.6 128.8) rotate(-36.7)" font-family="RooneySans-Bold, RooneySans" font-size="80" font-weight="700"><tspan x="0" y="0">Y</tspan></text>
    <text transform="translate(181.7 102) rotate(-30.2)" font-family="RooneySans-Bold, RooneySans" font-size="80" font-weight="700"><tspan x="0" y="0">’</tspan></text>
    <text transform="translate(202.4 89.3) rotate(-23.8)" font-family="RooneySans-Bold, RooneySans" font-size="80" font-weight="700"><tspan x="0" y="0">S</tspan></text>
    <text transform="translate(243.6 71.9) rotate(-17.6)" font-family="RooneySans-Bold, RooneySans" font-size="80" font-weight="700"><tspan x="0" y="0"> </tspan></text>
    <text transform="translate(264.2 64.9) rotate(-11.7)" font-family="RooneySans-Bold, RooneySans" font-size="80" font-weight="700"><tspan x="0" y="0">F</tspan></text>
    <text transform="translate(303.1 56.1) rotate(-2.5)" font-family="RooneySans-Bold, RooneySans" font-size="80" font-weight="700"><tspan x="0" y="0">O</tspan></text>
    <text transform="translate(361.4 53.6) rotate(7.9)" font-family="RooneySans-Bold, RooneySans" font-size="80" font-weight="700"><tspan x="0" y="0">U</tspan></text>
    <text transform="translate(415.8 60.9) rotate(18.5)" font-family="RooneySans-Bold, RooneySans" font-size="80" font-weight="700"><tspan x="0" y="0">N</tspan></text>
    <text transform="translate(470.9 79.4) rotate(29)" font-family="RooneySans-Bold, RooneySans" font-size="80" font-weight="700"><tspan x="0" y="0">D</tspan></text>
    <text transform="translate(518.9 106.2) rotate(38.7)" font-family="RooneySans-Bold, RooneySans" font-size="80" font-weight="700"><tspan x="0" y="0">A</tspan></text>
    <text transform="translate(558.1 137.9) rotate(47.5)" font-family="RooneySans-Bold, RooneySans" font-size="80" font-weight="700"><tspan x="0" y="0">T</tspan></text>
    <text transform="translate(588.4 171.9) rotate(54)" font-family="RooneySans-Bold, RooneySans" font-size="80" font-weight="700"><tspan x="0" y="0">I</tspan></text>
    <text transform="translate(603.5 190.8) rotate(61.8)" font-family="RooneySans-Bold, RooneySans" font-size="80" font-weight="700"><tspan x="0" y="0">O</tspan></text>
    <text transform="translate(631.1 242) rotate(72.6)" font-family="RooneySans-Bold, RooneySans" font-size="80" font-weight="700"><tspan x="0" y="0">N</tspan></text>
  </g>
  <g id="Text_COLLAR" display="none">
    <text transform="translate(145.1 552.1) rotate(30.1)" font-family="SketchnoteText, &apos;ZOSTG Z+ Sketchnote Text&apos;" font-size="35"><tspan x="0" y="0">S</tspan></text>
    <text transform="translate(164.9 563.6) rotate(30.1)" font-family="SketchnoteText, &apos;ZOSTG Z+ Sketchnote Text&apos;" font-size="35"><tspan x="0" y="0">E</tspan></text>
    <text transform="translate(188.7 577.9) rotate(20.4)" font-family="SketchnoteText, &apos;ZOSTG Z+ Sketchnote Text&apos;" font-size="35"><tspan x="0" y="0">R</tspan></text>
    <text transform="translate(213.8 587) rotate(18.8)" font-family="SketchnoteText, &apos;ZOSTG Z+ Sketchnote Text&apos;" font-size="35"><tspan x="0" y="0">V</tspan></text>
    <text transform="translate(237.1 594.8) rotate(16.8)" font-family="SketchnoteText, &apos;ZOSTG Z+ Sketchnote Text&apos;" font-size="35"><tspan x="0" y="0">I</tspan></text>
    <text transform="translate(249.7 597.9) rotate(12)" font-family="SketchnoteText, &apos;ZOSTG Z+ Sketchnote Text&apos;" font-size="35"><tspan x="0" y="0">C</tspan></text>
    <text transform="translate(277.8 604.6) rotate(8.5)" font-family="SketchnoteText, &apos;ZOSTG Z+ Sketchnote Text&apos;" font-size="35"><tspan x="0" y="0">E</tspan></text>
    <text transform="translate(304 607.9) rotate(3)" font-family="SketchnoteText, &apos;ZOSTG Z+ Sketchnote Text&apos;" font-size="35"><tspan x="0" y="0"> </tspan></text>
    <text transform="translate(313.4 608.4) rotate(1.2)" font-family="SketchnoteText, &apos;ZOSTG Z+ Sketchnote Text&apos;" font-size="35"><tspan x="0" y="0"> </tspan></text>
    <text transform="translate(322.3 608.6) rotate(1.2)" font-family="SketchnoteText, &apos;ZOSTG Z+ Sketchnote Text&apos;" font-size="35"><tspan x="0" y="0">D</tspan></text>
    <text transform="translate(354 609.8) rotate(-7.5)" font-family="SketchnoteText, &apos;ZOSTG Z+ Sketchnote Text&apos;" font-size="35"><tspan x="0" y="0">O</tspan></text>
    <text transform="translate(379.8 606.3) rotate(-2.6)" font-family="SketchnoteText, &apos;ZOSTG Z+ Sketchnote Text&apos;" font-size="35"><tspan x="0" y="0">G</tspan></text>
  </g>
  <g id="Corry_original" display="none">
    <path d="M304.1,204.2c-7.6,1.6-23.8,15.5-29.7,21.3s-10,8.5-7.5,12.5c2,1.8,4.8,2.1,7.3,2.7,10.4,2.4,40.2,5.8,49.5,3.1,2.2-.7,5-2,4.3-4.7-1.3-5.2-9.9-27.3-12.8-31.3s-5.9-4.5-11.1-3.4Z" fill="none"/>
    <path d="M574.1,211.2c-1.8-1.7-4.6-1.7-4.8,1.2s1.6,4,2,6.1c2.8,17,4.7,48.9,1.7,65.4-4.7,25.4-21,46.8-36,67-1.9,7.5,3.6,4.5,7.5,1.5,39.1-30.6,54.2-89.1,33.5-134.5-.4-1-3.4-6.4-3.8-6.7Z" fill="#fff"/>
    <path d="M429.7,361.4c12.1-7.4,24.7-17.9,34.1-28.4,18.5-20.7,31.4-58.6,56.2-70.8,14.1-7,29.1-.4,27.3,16.3-2.1,20.1-20.9,40.8-28,59s-4.1,11.2,2,11.1c19.4-18.3,59.8-76.9,28.9-99-11.7-8.4-22.9-7.3-35.3-1.4-26.4,12.4-36.8,41.2-52.8,63.2-16.2,22.3-38.5,43-65,52s-20.2,3.7-22.7,7.3-.2,5.4,3.6,6.1c17,3.1,35.5-7,50.5-13.8l1.2-1.5Z" fill="#fff"/>
    <path d="M170.8,261.4c1.8-1.5,20.2-13.5,11.1-14.5-5.4-.6-21.8,9.8-26.8,13.2-23.2,16.2-32.3,31.9-50.2,51.8-13.8,15.4-34.7,28-37.1,50.4,1.8,4.4,2.1,7.8,4.4,12.2,5.5,10.2,25.8,28.5,35.2,36.8,10.2,9.1,21.3,17.5,31.8,26.2,3.8,7.2-2.7,35.3-3.7,44.9s.8,2.9.6,4.6c-2.1,20.1-4.9,40.3-7.8,60.3l.5,3.4c39.9,30.6,85.5,51.1,135.3,59.7,37.1,6.4,76.2,7.7,113.7,4.3,16.1-1.4,32.1-4.5,48-7.1l1.3.3c10.9,21.4,40.8,17.6,52.6-1.3,13-20.7,6.9-60.1-21.4-62.9l-8.5-74c-1.5-.3-2.6,1.7-3.3,2.7-7.7,10.9-8,45.6-6.1,58.8s6,13.2,4.8,15.4c-4.1.6-7.7,7-10.6,7.9-8.7,3-37.1,5.3-47.8,6.2-74.1,6.8-129.5-2.2-195.5-35.5-14.6-7.3-28.9-16-43.1-24l-.7-1.8c2-14.1,3.6-28.4,5.5-42.5s-1.4-5,1.8-7.2c10,6.1,22.8,17.1,35,17.1s47.2-24.1,52.3-36.8.5-37.4-3.3-53.3c-7.3-30.3-20.3-56.9-17.5-89.5.5-6,4.2-17.4,3.9-22s-3.1-6.2-5.8-1.9c-10.1,16-10.5,52.6-7,70.7,4.6,24.4,20.3,57.9,17.9,82.1-1.3,13.1-13.8,22.1-24.3,28.7-8.2,5.2-15.5,8.9-25.1,4.7s-22.8-15.4-29.5-20.5c-15.3-11.5-33-26-46.6-39.4s-17-17.1-19.7-22.3c-7.6-14.6,15-29.9,23.7-39.7,21.4-24.1,36.9-45.1,61.9-66.6Z" fill="none"/>
    <path d="M509.3,370.9c-2.3-2.4-13.7,12.5-16,14.5-13,11.4-32.4,17.1-49.5,16.5-3.4-.1-8.6-3-11,1.1-2.1,3.6-4.9,27.9-5.5,33.6-1.9,19.1-2.9,43.6-1.1,62.8s1.4,9.4,3.5,12.5c2.2.5,2-3.3,2.3-4.7,4.1-20,5.1-41.2,9.5-61.5.9-4.2,5.2-23.9,9.3-24.7,12.2,6.5,26,1.3,37.4-4.6,3.1-1.6,11.4-6.3,13.5-8.5,4.9-5,4.3-21.1,5.6-28.4s2.8-5.2,1.9-8.6Z" fill="#fff"/>
    <path d="M297.3,400.9c-3.5,3.8,11.2,14.7,14.1,16.4,16.7,10.1,43.9,9.8,57.9-4.9.3-1.4-1.1-2.4-2.4-2.4-2.4-.1-11.2,2.7-15.1,2.9-10.2.8-20.7.3-30.4-2.5-8.3-2.4-15.7-7.4-24-9.5Z" fill="#fff"/>
    <path d="M558.8,231.9c-1.4,1.3-3.6.5-3.9-1.3-1.9-10.7-5.4-25.1-19-21.6-5.1,1.3-9.7,6.2-14.2,6.9-14.5,2.3-17.7-6.2-17.5-18.1s-1.3-2.6-2.8-2.3l-57.8,10.2c-.4,0-.8,0-1.2-.1-5.3-2.1-5.7-6.3-.5-9.5.9-.6,9.6-2.9,6.4-4.7-22.4-7-44.6-14.4-67.2-20.7-12.3-3.4-25.1-7.8-37.8-9.3s-12.5-1.7-17.5-1.6c-12.2.2-23.4,3-33.2,9.4-30.8,19.9-56.9,43-86.9,63.7-10.5,7.2-7,0-3.1-6.1,16-25.8,56.4-52.9,82.6-68.3,2.5-1.5,16.4-6.7,22.1-7.8,32.4-6.3,54.2,2.2,75.3,7.6,24.8,6.2,27,6.2,51.6,13.6,14,4.2,33.5,13.6,47.6,12.1s22.8-3.8,26.9-5.1,7.2-6,10.4-7.6c22.4-11.6,53.5-4.5,51.4,25.4-.4,5.7-7.9,32.1-11.5,35.4h0Z"/>
    <path d="M429.7,361.4l-1.2,1.5c-14.9,6.8-33.4,16.9-50.5,13.8s-6.3-2.1-3.6-6.1,17.7-5.6,22.7-7.3c26.5-9,48.8-29.7,65-52,16-22,26.4-50.8,52.8-63.2,12.4-5.8,23.6-6.9,35.3,1.4,30.9,22.1-9.5,80.7-28.9,99-6.1,0-3.5-7.4-2-11.1,7.1-18.2,25.9-38.9,28-59,1.7-16.7-13.2-23.3-27.3-16.3-24.8,12.3-37.6,50.2-56.2,70.8-9.5,10.6-22.1,21-34.1,28.4Z"/>
    <path d="M509.3,370.9c.9,3.3-1.4,5.8-1.9,8.6-1.3,7.3-.7,23.4-5.6,28.4s-10.4,6.9-13.5,8.5c-11.4,5.9-25.2,11.1-37.4,4.6-4.1.8-8.4,20.5-9.3,24.7-4.4,20.3-5.4,41.5-9.5,61.5s-.1,5.1-2.3,4.7c-2.1-3.1-3.1-8.7-3.5-12.5-1.9-19.2-.8-43.8,1.1-62.8.6-5.7,3.4-30,5.5-33.6,2.4-4.1,7.5-1.2,11-1.1,17.1.6,36.5-5.1,49.5-16.5s13.7-16.9,16-14.5Z"/>
    <path d="M574.1,211.2c.4.4,3.3,5.7,3.8,6.7,20.7,45.4,5.7,103.9-33.5,134.5-3.9,3-9.4,6.1-7.5-1.5,15-20.2,31.3-41.6,36-67,3.1-16.6,1.1-48.5-1.7-65.4-.3-2.1-2.1-4.1-2-6.1.2-2.9,3-3,4.8-1.2Z"/>
    <path d="M297.3,400.9c8.4,2.1,15.8,7,24,9.5,9.8,2.9,20.2,3.3,30.4,2.5s12.7-3.1,15.1-2.9,2.7,1.1,2.4,2.4c-14,14.7-41.2,15-57.9,4.9-2.9-1.7-17.6-12.6-14.1-16.4Z"/>
    <path d="M458.3,543.9l-8.5-74c-1.5-.3-2.6,1.7-3.3,2.7-7.7,10.9-8,45.6-6.1,58.8.5,3.4,6,13.2,4.8,15.4-4.1.6-7.7,7-10.6,7.9-8.7,3-37.1,5.3-47.8,6.2-74.1,6.8-129.5-2.2-195.5-35.5-14.6-7.3-28.9-16-43.1-24l-.7-1.8c2-14.1,3.6-28.4,5.5-42.5.3-2.5-1.4-5,1.8-7.2,10,6.1,22.8,17.1,35,17.1,13.6,0,47.2-24.1,52.3-36.8,6.2-15.5.5-37.4-3.3-53.3-7.3-30.3-20.3-56.9-17.5-89.5.5-6,4.2-17.4,3.9-22-.3-4.3-3.1-6.2-5.8-1.9-10.1,16-10.5,52.6-7,70.7,4.6,24.4,20.3,57.9,17.9,82.1-1.3,13.1-13.8,22.1-24.3,28.7-8.2,5.2-15.5,8.9-25.1,4.7-6.8-2.9-22.8-15.4-29.5-20.5-15.3-11.5-33-26-46.6-39.4-4.7-4.6-17-17.1-19.7-22.3-7.6-14.6,15-29.9,23.7-39.7,21.4-24.1,36.9-45.1,61.9-66.6,1.8-1.5,20.2-13.5,11.1-14.5-5.4-.6-21.8,9.8-26.8,13.2-23.2,16.2-32.3,31.9-50.2,51.8-13.8,15.4-34.7,28-37.1,50.4,1.8,4.4,2.1,7.8,4.4,12.2,5.5,10.2,25.8,28.5,35.2,36.8,10.2,9.1,21.3,17.5,31.8,26.2,3.8,7.2-2.7,35.3-3.7,44.9-.2,1.4.8,2.9.6,4.6-2.1,20.1-4.9,40.3-7.8,60.3l.5,3.4c39.9,30.6,85.5,51.1,135.3,59.7,37.1,6.4,76.2,7.7,113.7,4.3,16.1-1.4,32.1-4.5,48-7.1l1.3.3c10.9,21.4,40.8,17.6,52.6-1.3,13-20.7,6.9-60.1-21.4-62.9ZM424.3,601.9c-17.8,2.3-35.6,5.7-53.5,7-78.2,5.8-150.8-6.7-217.4-48.6-2.8-1.8-13.6-8.2-15.1-9.9-.5-.6-1.2-1-1.1-2,5.8-10.5,6.7-23.4,8.9-35.1.5-3.7,6.3.1,8.1,1,33.8,16.3,59.4,34.2,97,45,58.4,16.9,117.6,13.9,177,4.5-5.5,12.1-6.3,25-4,38ZM452.8,617c-33.1-.5-28.2-62.6,1.3-65.8,32.4-3.5,35,66.4-1.3,65.8Z"/>
    <path d="M454.3,558.9l-5,1.6,3,18.4-13.4-7-2.4,5.8,10.9,5.6-12.7,5.9,1.3,3.6,12.4-4-8,14.5,3.5,1.6,1.3-.3,9.1-14.8,4.5,20,4.3-2.6-3.8-17.4,12.5,4.7c7.5-5.7-4.6-7.1-8.2-9.4s-1.8,0-1.3-2.2c3.1-.9,12.8-2.7,12-6.5-1.1-5.4-9.8,1.6-13,2.5-1.3-1.7,5.4-11.7,7-13.5l-5-2.5-7,11-2-15Z" fill="#fff"/>
    <path d="M327.9,239c-1.3-5.2-9.9-27.3-12.8-31.3-3-4.3-5.9-4.5-11.1-3.4-7.6,1.6-23.8,15.5-29.7,21.3-2.6,2.6-10,8.5-7.5,12.5,2,1.8,4.8,2.1,7.3,2.7,10.4,2.4,40.2,5.8,49.5,3.1,2.2-.7,5-2,4.3-4.7ZM290.3,227l12-8,1,11c-4.4-2.2-10,1.8-13-3Z"/>
    <path d="M454.3,558.9l2,15,7-11,5,2.5c-1.5,1.8-8.3,11.8-7,13.5,3.2-.9,11.9-7.9,13-2.5.8,3.8-8.9,5.6-12,6.5-.5,2.3.3,1.6,1.3,2.2,3.7,2.3,15.8,3.7,8.2,9.4l-12.5-4.7,3.8,17.4-4.3,2.6-4.5-20-9.1,14.8-1.3.3-3.5-1.6,8-14.5-12.4,4-1.3-3.6,12.7-5.9-10.9-5.6,2.4-5.8,13.4,7-3-18.4,5-1.6Z" fill="#bb363f"/>
  </g>
  <g id="Layer_20" display="none">
    <path d="M457.1,550.9c.3,0,.5,0,.8,0,9.7,1.1,14.8,7.7,17.5,13.1,5.8,11.7,5.1,28.6-1.5,39.1-4.8,7.6-13.7,12.5-22.7,12.5s-13-1.4-17.8-10.7h0s0,0,0,0l-.7-1.3c-4.3-9.2-3.6-28.2,4.5-40.9,4.9-7.8,11.6-11.8,19.9-11.8M457.1,543.9c-31.5,0-39.4,44.5-30.7,62.8l.7,1.4c5.1,10,14.4,14.5,24,14.5s22.3-5.8,28.6-15.8c13-20.7,6.9-60.1-21.4-62.9h0c-.4,0-.8,0-1.2,0h0Z" fill="#2d80a2"/>
  </g>
  <g id="Corry_DARK" display="none">
    <path d="M304.1,204.2c-7.6,1.6-23.8,15.5-29.7,21.3s-10,8.5-7.5,12.5c2,1.8,4.8,2.1,7.3,2.7,10.4,2.4,40.2,5.8,49.5,3.1,2.2-.7,5-2,4.3-4.7-1.3-5.2-9.9-27.3-12.8-31.3s-5.9-4.5-11.1-3.4Z" fill="none"/>
    <path d="M574.1,211.2c-1.8-1.7-4.6-1.7-4.8,1.2s1.6,4,2,6.1c2.8,17,4.7,48.9,1.7,65.4-4.7,25.4-21,46.8-36,67-1.9,7.5,3.6,4.5,7.5,1.5,39.1-30.6,54.2-89.1,33.5-134.5-.4-1-3.4-6.4-3.8-6.7Z" fill="#fff"/>
    <path d="M429.7,361.4c12.1-7.4,24.7-17.9,34.1-28.4,18.5-20.7,31.4-58.6,56.2-70.8,14.1-7,29.1-.4,27.3,16.3-2.1,20.1-20.9,40.8-28,59s-4.1,11.2,2,11.1c19.4-18.3,59.8-76.9,28.9-99-11.7-8.4-22.9-7.3-35.3-1.4-26.4,12.4-36.8,41.2-52.8,63.2-16.2,22.3-38.5,43-65,52s-20.2,3.7-22.7,7.3-.2,5.4,3.6,6.1c17,3.1,35.5-7,50.5-13.8l1.2-1.5Z" fill="#fff"/>
    <path d="M428.9,565.5s0,0,0,0c0,0,0,0,0,0,0,0-.2,0-.2,0s0,0,0,0c0,0,0,0,0,0" fill="none"/>
    <path d="M458.3,543.9l-8.5-74c-1.5-.3-2.6,1.7-3.3,2.7-7.7,10.9-8,45.6-6.1,58.8.5,3.4,5.9,13,4.8,15.3.2.3.3.6.4.9.5,0,1-.1,1.5-.1.9,0,1.8.1,2.6.3.3,0,.6,0,.9,0,.4,0,.8,0,1.1,0s.3,0,.4,0c.9-.6,1.9-1.1,3-1.4.8-.2,1.6-.3,2.4-.3.4-.7.8-1.4,1.3-2-.2,0-.4,0-.6,0Z" fill="none"/>
    <path d="M509.3,370.9c-2.3-2.4-13.7,12.5-16,14.5-13,11.4-32.4,17.1-49.5,16.5-3.4-.1-8.6-3-11,1.1-2.1,3.6-4.9,27.9-5.5,33.6-1.9,19.1-2.9,43.6-1.1,62.8s1.4,9.4,3.5,12.5c2.2.5,2-3.3,2.3-4.7,4.1-20,5.1-41.2,9.5-61.5.9-4.2,5.2-23.9,9.3-24.7,12.2,6.5,26,1.3,37.4-4.6,3.1-1.6,11.4-6.3,13.5-8.5,4.9-5,4.3-21.1,5.6-28.4s2.8-5.2,1.9-8.6Z" fill="#fff"/>
    <path d="M297.3,400.9c-3.5,3.8,11.2,14.7,14.1,16.4,16.7,10.1,43.9,9.8,57.9-4.9.3-1.4-1.1-2.4-2.4-2.4-2.4-.1-11.2,2.7-15.1,2.9-10.2.8-20.7.3-30.4-2.5-8.3-2.4-15.7-7.4-24-9.5Z" fill="#fff"/>
    <path d="M558.8,231.9c-1.4,1.3-3.6.5-3.9-1.3-1.9-10.7-5.4-25.1-19-21.6-5.1,1.3-9.7,6.2-14.2,6.9-14.5,2.3-17.7-6.2-17.5-18.1s-1.3-2.6-2.8-2.3l-57.8,10.2c-.4,0-.8,0-1.2-.1-5.3-2.1-5.7-6.3-.5-9.5.9-.6,9.6-2.9,6.4-4.7-22.4-7-44.6-14.4-67.2-20.7-12.3-3.4-25.1-7.8-37.8-9.3s-12.5-1.7-17.5-1.6c-12.2.2-23.4,3-33.2,9.4-30.8,19.9-56.9,43-86.9,63.7-10.5,7.2-7,0-3.1-6.1,16-25.8,56.4-52.9,82.6-68.3,2.5-1.5,16.4-6.7,22.1-7.8,32.4-6.3,54.2,2.2,75.3,7.6,24.8,6.2,27,6.2,51.6,13.6,14,4.2,33.5,13.6,47.6,12.1s22.8-3.8,26.9-5.1,7.2-6,10.4-7.6c22.4-11.6,53.5-4.5,51.4,25.4-.4,5.7-7.9,32.1-11.5,35.4h0Z"/>
    <path d="M429.7,361.4l-1.2,1.5c-14.9,6.8-33.4,16.9-50.5,13.8s-6.3-2.1-3.6-6.1,17.7-5.6,22.7-7.3c26.5-9,48.8-29.7,65-52,16-22,26.4-50.8,52.8-63.2,12.4-5.8,23.6-6.9,35.3,1.4,30.9,22.1-9.5,80.7-28.9,99-6.1,0-3.5-7.4-2-11.1,7.1-18.2,25.9-38.9,28-59,1.7-16.7-13.2-23.3-27.3-16.3-24.8,12.3-37.6,50.2-56.2,70.8-9.5,10.6-22.1,21-34.1,28.4Z"/>
    <path d="M509.3,370.9c.9,3.3-1.4,5.8-1.9,8.6-1.3,7.3-.7,23.4-5.6,28.4s-10.4,6.9-13.5,8.5c-11.4,5.9-25.2,11.1-37.4,4.6-4.1.8-8.4,20.5-9.3,24.7-4.4,20.3-5.4,41.5-9.5,61.5s-.1,5.1-2.3,4.7c-2.1-3.1-3.1-8.7-3.5-12.5-1.9-19.2-.8-43.8,1.1-62.8.6-5.7,3.4-30,5.5-33.6,2.4-4.1,7.5-1.2,11-1.1,17.1.6,36.5-5.1,49.5-16.5s13.7-16.9,16-14.5Z"/>
    <path d="M574.1,211.2c.4.4,3.3,5.7,3.8,6.7,20.7,45.4,5.7,103.9-33.5,134.5-3.9,3-9.4,6.1-7.5-1.5,15-20.2,31.3-41.6,36-67,3.1-16.6,1.1-48.5-1.7-65.4-.3-2.1-2.1-4.1-2-6.1.2-2.9,3-3,4.8-1.2Z"/>
    <path d="M297.3,400.9c8.4,2.1,15.8,7,24,9.5,9.8,2.9,20.2,3.3,30.4,2.5s12.7-3.1,15.1-2.9,2.7,1.1,2.4,2.4c-14,14.7-41.2,15-57.9,4.9-2.9-1.7-17.6-12.6-14.1-16.4Z"/>
    <path d="M429.4,563.8"/>
    <path d="M327.9,239c-1.3-5.2-9.9-27.3-12.8-31.3-3-4.3-5.9-4.5-11.1-3.4-7.6,1.6-23.8,15.5-29.7,21.3-2.6,2.6-10,8.5-7.5,12.5,2,1.8,4.8,2.1,7.3,2.7,10.4,2.4,40.2,5.8,49.5,3.1,2.2-.7,5-2,4.3-4.7ZM290.3,227l12-8,1,11c-4.4-2.2-10,1.8-13-3Z"/>
    <path d="M426.4,606.7c-.7-1.5-1.3-3.2-1.8-5,0,0,0,0,0,0,0,0-.2,0-.3,0,0,0,0,.1,0,.2-17.8,2.3-35.6,5.7-53.5,7-78.2,5.8-150.8-6.7-217.4-48.6-2.8-1.8-13.6-8.2-15.1-9.9-.5-.6-1.2-1-1.1-2,5.8-10.5,6.7-23.4,8.9-35.1.5-3.7,6.3.1,8.1,1,33.8,16.3,59.4,34.2,97,45,58.4,16.9,117.6,13.9,177,4.5h.2c1.6-3.3,3.4-6.4,5.7-9.1-9.1,2.9-36.9,5.1-47.4,6.1-74.1,6.8-129.5-2.2-195.5-35.5-14.6-7.3-28.9-16-43.1-24l-.7-1.8c2-14.1,3.6-28.4,5.5-42.5.3-2.5-1.4-5,1.8-7.2,10,6.1,22.8,17.1,35,17.1,13.6,0,47.2-24.1,52.3-36.8,6.2-15.5.5-37.4-3.3-53.3-7.3-30.3-20.3-56.9-17.5-89.5.5-6,4.2-17.4,3.9-22-.3-4.3-3.1-6.2-5.8-1.9-10.1,16-10.5,52.6-7,70.7,4.6,24.4,20.3,57.9,17.9,82.1-1.3,13.1-13.8,22.1-24.3,28.7-8.2,5.2-15.5,8.9-25.1,4.7-6.8-2.9-22.8-15.4-29.5-20.5-15.3-11.5-33-26-46.6-39.4-4.7-4.6-17-17.1-19.7-22.3-7.6-14.6,15-29.9,23.7-39.7,21.4-24.1,36.9-45.1,61.9-66.6,1.8-1.5,20.2-13.5,11.1-14.5-5.4-.6-21.8,9.8-26.8,13.2-23.2,16.2-32.3,31.9-50.2,51.8-13.8,15.4-34.7,28-37.1,50.4,1.8,4.4,2.1,7.8,4.4,12.2,5.5,10.2,25.8,28.5,35.2,36.8,10.2,9.1,21.3,17.5,31.8,26.2,3.8,7.2-2.7,35.3-3.7,44.9-.2,1.4.8,2.9.6,4.6-2.1,20.1-4.9,40.3-7.8,60.3l.5,3.4c39.9,30.6,85.5,51.1,135.3,59.7,37.1,6.4,76.2,7.7,113.7,4.3,16.1-1.4,32.1-4.5,48-7.1h.1c.2,0,.5,0,.7-.1,0,0,.1,0,.2,0l-.5-.9Z"/>
    <path d="M445.3,546.3c3.5-1.5,7.4-2.4,11.8-2.4s.8,0,1.2,0h0l-8.5-74c-1.5-.3-2.6,1.7-3.3,2.7-7.7,10.9-8,45.6-6.1,58.8.5,3.3,5.4,12.1,4.9,14.9Z"/>
  </g>
  <g id="Corry_WHITE">
    <path d="M574.1,211.2c-1.8-1.7-4.6-1.7-4.8,1.2s1.6,4,2,6.1c2.8,17,4.7,48.9,1.7,65.4-4.7,25.4-21,46.8-36,67-1.9,7.5,3.6,4.5,7.5,1.5,39.1-30.6,54.2-89.1,33.5-134.5-.4-1-3.4-6.4-3.8-6.7Z" fill="#fff"/>
    <path d="M429.7,361.4c12.1-7.4,24.7-17.9,34.1-28.4,18.5-20.7,31.4-58.6,56.2-70.8,14.1-7,29.1-.4,27.3,16.3-2.1,20.1-20.9,40.8-28,59s-4.1,11.2,2,11.1c19.4-18.3,59.8-76.9,28.9-99-11.7-8.4-22.9-7.3-35.3-1.4-26.4,12.4-36.8,41.2-52.8,63.2-16.2,22.3-38.5,43-65,52s-20.2,3.7-22.7,7.3-.2,5.4,3.6,6.1c17,3.1,35.5-7,50.5-13.8l1.2-1.5Z" fill="#fff"/>
    <path d="M428.9,565.5s0,0,0,0c0,0,0,0,0,0,0,0-.2,0-.2,0s0,0,0,0c0,0,0,0,0,0" fill="#fff"/>
    <path d="M509.3,370.9c-2.3-2.4-13.7,12.5-16,14.5-13,11.4-32.4,17.1-49.5,16.5-3.4-.1-8.6-3-11,1.1-2.1,3.6-4.9,27.9-5.5,33.6-1.9,19.1-2.9,43.6-1.1,62.8s1.4,9.4,3.5,12.5c2.2.5,2-3.3,2.3-4.7,4.1-20,5.1-41.2,9.5-61.5.9-4.2,5.2-23.9,9.3-24.7,12.2,6.5,26,1.3,37.4-4.6,3.1-1.6,11.4-6.3,13.5-8.5,4.9-5,4.3-21.1,5.6-28.4s2.8-5.2,1.9-8.6Z" fill="#fff"/>
    <path d="M297.3,400.9c-3.5,3.8,11.2,14.7,14.1,16.4,16.7,10.1,43.9,9.8,57.9-4.9.3-1.4-1.1-2.4-2.4-2.4-2.4-.1-11.2,2.7-15.1,2.9-10.2.8-20.7.3-30.4-2.5-8.3-2.4-15.7-7.4-24-9.5Z" fill="#fff"/>
    <path d="M558.8,231.9c-1.4,1.3-3.6.5-3.9-1.3-1.9-10.7-5.4-25.1-19-21.6-5.1,1.3-9.7,6.2-14.2,6.9-14.5,2.3-17.7-6.2-17.5-18.1s-1.3-2.6-2.8-2.3l-57.8,10.2c-.4,0-.8,0-1.2-.1-5.3-2.1-5.7-6.3-.5-9.5.9-.6,9.6-2.9,6.4-4.7-22.4-7-44.6-14.4-67.2-20.7-12.3-3.4-25.1-7.8-37.8-9.3s-12.5-1.7-17.5-1.6c-12.2.2-23.4,3-33.2,9.4-30.8,19.9-56.9,43-86.9,63.7-10.5,7.2-7,0-3.1-6.1,16-25.8,56.4-52.9,82.6-68.3,2.5-1.5,16.4-6.7,22.1-7.8,32.4-6.3,54.2,2.2,75.3,7.6,24.8,6.2,27,6.2,51.6,13.6,14,4.2,33.5,13.6,47.6,12.1s22.8-3.8,26.9-5.1,7.2-6,10.4-7.6c22.4-11.6,53.5-4.5,51.4,25.4-.4,5.7-7.9,32.1-11.5,35.4h0Z" fill="#fff"/>
    <path d="M429.7,361.4l-1.2,1.5c-14.9,6.8-33.4,16.9-50.5,13.8s-6.3-2.1-3.6-6.1,17.7-5.6,22.7-7.3c26.5-9,48.8-29.7,65-52,16-22,26.4-50.8,52.8-63.2,12.4-5.8,23.6-6.9,35.3,1.4,30.9,22.1-9.5,80.7-28.9,99-6.1,0-3.5-7.4-2-11.1,7.1-18.2,25.9-38.9,28-59,1.7-16.7-13.2-23.3-27.3-16.3-24.8,12.3-37.6,50.2-56.2,70.8-9.5,10.6-22.1,21-34.1,28.4Z" fill="#fff"/>
    <path d="M509.3,370.9c.9,3.3-1.4,5.8-1.9,8.6-1.3,7.3-.7,23.4-5.6,28.4s-10.4,6.9-13.5,8.5c-11.4,5.9-25.2,11.1-37.4,4.6-4.1.8-8.4,20.5-9.3,24.7-4.4,20.3-5.4,41.5-9.5,61.5s-.1,5.1-2.3,4.7c-2.1-3.1-3.1-8.7-3.5-12.5-1.9-19.2-.8-43.8,1.1-62.8.6-5.7,3.4-30,5.5-33.6,2.4-4.1,7.5-1.2,11-1.1,17.1.6,36.5-5.1,49.5-16.5s13.7-16.9,16-14.5Z" fill="#fff"/>
    <path d="M574.1,211.2c.4.4,3.3,5.7,3.8,6.7,20.7,45.4,5.7,103.9-33.5,134.5-3.9,3-9.4,6.1-7.5-1.5,15-20.2,31.3-41.6,36-67,3.1-16.6,1.1-48.5-1.7-65.4-.3-2.1-2.1-4.1-2-6.1.2-2.9,3-3,4.8-1.2Z" fill="#fff"/>
    <path d="M297.3,400.9c8.4,2.1,15.8,7,24,9.5,9.8,2.9,20.2,3.3,30.4,2.5s12.7-3.1,15.1-2.9,2.7,1.1,2.4,2.4c-14,14.7-41.2,15-57.9,4.9-2.9-1.7-17.6-12.6-14.1-16.4Z" fill="#fff"/>
    <path d="M429.4,563.8" fill="#fff"/>
    <path d="M426.4,606.7c-.7-1.5-1.3-3.2-1.8-5,0,0,0,0,0,0,0,0-.2,0-.3,0,0,0,0,.1,0,.2-17.8,2.3-35.6,5.7-53.5,7-78.2,5.8-150.8-6.7-217.4-48.6-2.8-1.8-13.6-8.2-15.1-9.9-.5-.6-1.2-1-1.1-2,5.8-10.5,6.7-23.4,8.9-35.1.5-3.7,6.3.1,8.1,1,33.8,16.3,59.4,34.2,97,45,58.4,16.9,117.6,13.9,177,4.5h.2c1.6-3.3,3.4-6.4,5.7-9.1-9.1,2.9-36.9,5.1-47.4,6.1-74.1,6.8-129.5-2.2-195.5-35.5-14.6-7.3-28.9-16-43.1-24l-.7-1.8c2-14.1,3.6-28.4,5.5-42.5.3-2.5-1.4-5,1.8-7.2,10,6.1,22.8,17.1,35,17.1,13.6,0,47.2-24.1,52.3-36.8,6.2-15.5.5-37.4-3.3-53.3-7.3-30.3-20.3-56.9-17.5-89.5.5-6,4.2-17.4,3.9-22-.3-4.3-3.1-6.2-5.8-1.9-10.1,16-10.5,52.6-7,70.7,4.6,24.4,20.3,57.9,17.9,82.1-1.3,13.1-13.8,22.1-24.3,28.7-8.2,5.2-15.5,8.9-25.1,4.7-6.8-2.9-22.8-15.4-29.5-20.5-15.3-11.5-33-26-46.6-39.4-4.7-4.6-17-17.1-19.7-22.3-7.6-14.6,15-29.9,23.7-39.7,21.4-24.1,36.9-45.1,61.9-66.6,1.8-1.5,20.2-13.5,11.1-14.5-5.4-.6-21.8,9.8-26.8,13.2-23.2,16.2-32.3,31.9-50.2,51.8-13.8,15.4-34.7,28-37.1,50.4,1.8,4.4,2.1,7.8,4.4,12.2,5.5,10.2,25.8,28.5,35.2,36.8,10.2,9.1,21.3,17.5,31.8,26.2,3.8,7.2-2.7,35.3-3.7,44.9-.2,1.4.8,2.9.6,4.6-2.1,20.1-4.9,40.3-7.8,60.3l.5,3.4c39.9,30.6,85.5,51.1,135.3,59.7,37.1,6.4,76.2,7.7,113.7,4.3,16.1-1.4,32.1-4.5,48-7.1h.1c.2,0,.5,0,.7-.1,0,0,.1,0,.2,0l-.5-.9Z" fill="#fff"/>
    <path d="M327.9,239c-1.3-5.2-9.9-27.3-12.8-31.3-3-4.3-5.9-4.5-11.1-3.4-7.6,1.6-23.8,15.5-29.7,21.3-2.6,2.6-10,8.5-7.5,12.5,2,1.8,4.8,2.1,7.3,2.7,10.4,2.4,40.2,5.8,49.5,3.1,2.2-.7,5-2,4.3-4.7ZM290.3,227l12-8,1,11c-4.4-2.2-10,1.8-13-3Z" fill="#fff"/>
    <path d="M445.3,546.3c.4-.2.8-.4,1.3-.5,0,0,.2,0,.3,0,.3-.1.7-.3,1-.4.1,0,.2,0,.4-.1.3,0,.6-.2,1-.3.1,0,.3,0,.4-.1.3,0,.6-.2.9-.2.2,0,.3,0,.5-.1.3,0,.6-.1.9-.2.2,0,.3,0,.5,0,.3,0,.6,0,1-.1.2,0,.4,0,.5,0,.3,0,.7,0,1,0,.2,0,.3,0,.5,0,.5,0,1,0,1.5,0s.8,0,1.2,0h0l-8.5-74c-1.5-.3-2.6,1.7-3.3,2.7-7.7,10.9-8,45.6-6.1,58.8.5,3.3,5.4,12.1,4.9,14.9Z" fill="#fff"/>
  </g>
  <g id="TAG_WHITE1" data-name="TAG_WHITE">
    <g id="Collar_OUTLINE" display="none">
      <path d="M457.1,550.9c.3,0,.5,0,.8,0,9.7,1.1,14.8,7.7,17.5,13.1,5.8,11.7,5.1,28.6-1.5,39.1-4.8,7.6-13.7,12.5-22.7,12.5s-13-1.4-17.8-10.7h0s0,0,0,0l-.7-1.3c-4.3-9.2-3.6-28.2,4.5-40.9,4.9-7.8,11.6-11.8,19.9-11.8M457.1,543.9c-31.5,0-39.4,44.5-30.7,62.8l.7,1.4c5.1,10,14.4,14.5,24,14.5s22.3-5.8,28.6-15.8c13-20.7,6.9-60.1-21.4-62.9h0c-.4,0-.8,0-1.2,0h0Z"/>
    </g>
    <g id="Collar_STAR">
      <path d="M475.3,564c-2.6-5.4-7.8-12-17.5-13.1-.3,0-.5,0-.8,0-8.3,0-15,4-19.9,11.8-8,12.7-8.8,31.7-4.5,40.9l.7,1.3h0s0,0,0,0c4.7,9.3,13.2,10.7,17.8,10.7,9,0,17.9-4.9,22.7-12.5,6.6-10.6,7.3-27.4,1.5-39.1ZM463.6,585.2c3.7,2.3,15.8,3.7,8.2,9.4l-12.5-4.7,3.8,17.4-4.3,2.6-4.5-20-9.1,14.8-1.3.3-3.5-1.6,8-14.5-12.4,4-1.3-3.6,12.7-5.9-10.9-5.6,2.4-5.8,13.4,7-3-18.4,5-1.6,2,15,7-11,5,2.5c-1.5,1.8-8.3,11.8-7,13.5,3.2-.9,11.9-7.9,13-2.5.8,3.8-8.9,5.6-12,6.5-.5,2.3.3,1.6,1.3,2.2Z" fill="#fff"/>
    </g>
  </g>
  <g id="TAG_DARK1" data-name="TAG_DARK" display="none">
    <g id="Collar_INSIDE_copy">
      <path d="M457.9,550.9c-.3,0-.5,0-.8,0-8.3,0-15,4-19.9,11.8-8,12.7-8.8,31.7-4.5,40.9l.7,1.3h0s0,0,0,0c4.7,9.3,13.2,10.7,17.8,10.7,9,0,17.9-4.9,22.7-12.5,6.6-10.6,7.3-27.4,1.5-39.1-2.6-5.4-7.8-12-17.5-13.1Z" fill="none"/>
    </g>
    <g id="Collar_OUTLINE_copy">
      <path d="M457.1,550.9c.3,0,.5,0,.8,0,9.7,1.1,14.8,7.7,17.5,13.1,5.8,11.7,5.1,28.6-1.5,39.1-4.8,7.6-13.7,12.5-22.7,12.5s-13-1.4-17.8-10.7h0s0,0,0,0l-.7-1.3c-4.3-9.2-3.6-28.2,4.5-40.9,4.9-7.8,11.6-11.8,19.9-11.8M457.1,543.9c-31.5,0-39.4,44.5-30.7,62.8l.7,1.4c5.1,10,14.4,14.5,24,14.5s22.3-5.8,28.6-15.8c13-20.7,6.9-60.1-21.4-62.9h0c-.4,0-.8,0-1.2,0h0Z"/>
    </g>
    <g id="Collar_STAR_copy">
      <path d="M454.3,558.9l2,15,7-11,5,2.5c-1.5,1.8-8.3,11.8-7,13.5,3.2-.9,11.9-7.9,13-2.5.8,3.8-8.9,5.6-12,6.5-.5,2.3.3,1.6,1.3,2.2,3.7,2.3,15.8,3.7,8.2,9.4l-12.5-4.7,3.8,17.4-4.3,2.6-4.5-20-9.1,14.8-1.3.3-3.5-1.6,8-14.5-12.4,4-1.3-3.6,12.7-5.9-10.9-5.6,2.4-5.8,13.4,7-3-18.4,5-1.6Z" fill="#bb363f"/>
    </g>
  </g>
  <g id="Corry_ID_tag" display="none">
    <path d="M425.8,607.8l1.3.3c10.9,21.4,40.8,17.6,52.6-1.3,13-20.7,6.9-60.1-21.4-62.9" fill="none"/>
    <path d="M445.2,546.8c-4.1.6-7.7,7-10.6,7.9" fill="none"/>
    <path d="M458.3,543.9c-33.4-1.2-41.2,46.6-31.2,64.2,10.9,21.4,40.8,17.6,52.6-1.3,13-20.7,6.9-60.1-21.4-62.9"/>
    <path d="M452.8,617c-33.1-.5-28.2-62.6,1.3-65.8,32.4-3.5,35,66.4-1.3,65.8Z"/>
    <path d="M454.3,558.9l-5,1.6,3,18.4-13.4-7-2.4,5.8,10.9,5.6-12.7,5.9,1.3,3.6,12.4-4-8,14.5,3.5,1.6,1.3-.3,9.1-14.8,4.5,20,4.3-2.6-3.8-17.4,12.5,4.7c7.5-5.7-4.6-7.1-8.2-9.4s-1.8,0-1.3-2.2c3.1-.9,12.8-2.7,12-6.5-1.1-5.4-9.8,1.6-13,2.5-1.3-1.7,5.4-11.7,7-13.5l-5-2.5-7,11-2-15Z" fill="#fff"/>
    <path d="M454.3,558.9l2,15,7-11,5,2.5c-1.5,1.8-8.3,11.8-7,13.5,3.2-.9,11.9-7.9,13-2.5.8,3.8-8.9,5.6-12,6.5-.5,2.3.3,1.6,1.3,2.2,3.7,2.3,15.8,3.7,8.2,9.4l-12.5-4.7,3.8,17.4-4.3,2.6-4.5-20-9.1,14.8-1.3.3-3.5-1.6,8-14.5-12.4,4-1.3-3.6,12.7-5.9-10.9-5.6,2.4-5.8,13.4,7-3-18.4,5-1.6Z" fill="#bb363f"/>
  </g>
  <g id="Corry_ID_tag_OUTLINE" display="none">
    <path d="M457.1,544.9c.4,0,.8,0,1.2,0h0c12.5,1.3,19.1,9.6,22.4,16.4,6.7,13.7,5.9,32.6-1.8,45-5.8,9.3-16.7,15.3-27.8,15.3s-18.6-5.1-23.1-14l-.7-1.4c-5.2-10.8-4.5-32.2,4.7-46.8,4.2-6.7,11.9-14.6,25-14.6M457.1,543.9c-31.5,0-39.4,44.5-30.7,62.8l.7,1.4c5.1,10,14.4,14.5,24,14.5s22.3-5.8,28.6-15.8c13-20.7,6.9-60.1-21.4-62.9h0c-.4,0-.8,0-1.2,0h0Z" fill="#bb363f"/>
  </g>
  <g id="DOTS">
    <circle cx="13.7" cy="344.1" r="6.5" fill="#fff"/>
    <circle cx="678.9" cy="344.1" r="6.5" fill="#fff"/>
  </g>
  <g id="Text_BOT_outline">
    <g>
      <path d="M5.4,417.1c-.9.2-1.6,0-2.1-.4-.5-.4-.9-1.1-1.1-2.2-.2-1,0-1.8.3-2.4.4-.6,1-.9,1.8-1.1l24.8-4.4c.9-.2,1.6,0,2.1.4.5.4.9,1.1,1.1,2.1.2,1,0,1.8-.3,2.4s-1,.9-1.8,1.1l-9.7,1.7,2.1,12,9.7-1.7c.9-.2,1.6,0,2.1.4.5.4.9,1.1,1.1,2.2.2,1,0,1.8-.3,2.4s-1,.9-1.8,1.1l-24.8,4.4c-.9.2-1.6,0-2.1-.4-.5-.4-.9-1.1-1.1-2.1-.2-1,0-1.8.3-2.4.4-.6,1-.9,1.8-1.1l10.3-1.8-2.1-12-10.3,1.8Z" fill="#fff"/>
      <path d="M22.2,440.4c2.4-.7,4.7-1,6.8-.8,2.1.1,4,.6,5.7,1.5,1.7.9,3.1,2.1,4.3,3.6s2.1,3.4,2.7,5.5c.6,2.1.8,4,.6,5.9-.2,1.9-.7,3.6-1.6,5.2-.9,1.6-2.2,2.9-3.8,4.1s-3.6,2.1-5.8,2.7c-2.4.7-4.7,1-6.8.8s-4-.6-5.7-1.5c-1.7-.9-3.1-2.1-4.3-3.6-1.2-1.6-2.1-3.4-2.7-5.5-.6-2.1-.8-4-.6-5.9s.7-3.6,1.6-5.2,2.2-2.9,3.8-4.1c1.6-1.2,3.6-2.1,5.8-2.8ZM24.3,446.3c-1.7.5-3.1,1.1-4.3,1.9-1.2.8-2.1,1.7-2.7,2.7-.7,1-1.1,2-1.2,3.1-.2,1.1,0,2.2.2,3.3.3,1.1.8,2.1,1.6,2.9s1.6,1.5,2.7,2c1.1.5,2.3.7,3.7.8s2.9-.2,4.6-.7c1.7-.5,3.1-1.1,4.3-1.9,1.2-.8,2.1-1.7,2.7-2.7.7-1,1.1-2,1.2-3.1.2-1.1,0-2.2-.2-3.3-.3-1.1-.8-2.1-1.6-2.9-.7-.8-1.6-1.5-2.7-2-1.1-.5-2.3-.7-3.7-.8-1.4,0-2.9.2-4.6.7Z" fill="#fff"/>
      <path d="M43.5,471.2c1.3-.5,2.4-.6,3.3-.2.9.4,1.6,1.2,2.2,2.6.2.6.4,1.2.4,1.6s0,.9-.1,1.4c-.1.4-.3.9-.6,1.3-.3.4-.6.9-.9,1.4l-10.7,14.6c-.4.5-.8,1-1.2,1.5-.4.5-.7.9-1.1,1.2-.4.4-.7.8-1,1.2h0c.5-.1.9-.4,1.5-.7.4-.2,1-.5,1.5-.8.6-.3,1.2-.6,1.8-.8l14.1-6c.7-.3,1.3-.3,1.9,0,.6.3,1.1.8,1.4,1.7s.4,1.6.2,2.2c-.2.6-.7,1-1.4,1.3l-22.2,9c-1.3.5-2.4.6-3.3.2-.9-.4-1.6-1.2-2.2-2.6-.2-.6-.4-1.2-.4-1.7,0-.5,0-1,.1-1.4.1-.4.3-.9.6-1.3.3-.4.6-.9.9-1.4l10.7-14.6c.4-.5.8-1,1.2-1.5.4-.5.7-.9,1.1-1.2.4-.4.7-.8,1-1.2h0c-.5.2-.9.4-1.5.7-.4.2-1,.5-1.5.8-.6.3-1.2.6-1.8.8l-14.1,6c-.7.3-1.3.3-1.9,0-.6-.3-1.1-.8-1.4-1.7s-.4-1.6-.2-2.2c.2-.6.7-1,1.4-1.3l22.2-9Z" fill="#fff"/>
      <path d="M45.7,506.4c2.2-1.2,4.4-1.9,6.4-2.2,2.1-.3,4-.2,5.9.3,1.8.5,3.5,1.4,5,2.7s2.8,2.9,3.8,4.8c1,1.9,1.6,3.8,1.9,5.7.2,1.9,0,3.7-.5,5.4-.6,1.7-1.5,3.3-2.8,4.8-1.3,1.5-3,2.8-5.1,3.9-2.2,1.2-4.4,1.9-6.4,2.2-2.1.3-4,.2-5.9-.3-1.8-.5-3.5-1.4-5-2.6-1.5-1.3-2.8-2.9-3.8-4.8-1-1.9-1.6-3.8-1.9-5.7-.2-1.9,0-3.7.5-5.4.6-1.7,1.5-3.3,2.8-4.8,1.3-1.5,3-2.8,5.1-3.9ZM49.1,511.7c-1.5.8-2.8,1.8-3.8,2.8-1,1-1.7,2.1-2.1,3.2-.4,1.1-.6,2.2-.6,3.3,0,1.1.4,2.2.9,3.2s1.3,1.9,2.1,2.5c.9.7,1.9,1.1,3,1.4,1.1.2,2.4.2,3.8,0,1.4-.3,2.8-.8,4.4-1.6s2.8-1.8,3.8-2.8c1-1,1.7-2.1,2.1-3.2.4-1.1.6-2.2.5-3.3,0-1.1-.4-2.2-.9-3.2-.5-1-1.3-1.9-2.1-2.5-.9-.7-1.9-1.1-3-1.4-1.1-.2-2.4-.2-3.8,0-1.4.2-2.8.8-4.4,1.6Z" fill="#fff"/>
      <path d="M56.8,550.2c-.7.5-1.4.6-2.1.5-.7-.1-1.3-.6-1.8-1.5-.6-.9-.8-1.6-.7-2.3.1-.7.5-1.2,1.3-1.7l20.7-13.8c.7-.5,1.4-.7,2.1-.5.7.1,1.3.6,1.8,1.3l3.6,5.4c1.1,1.7,2,3.3,2.4,4.8.5,1.5.7,2.8.6,4.1,0,1.2-.5,2.3-1.1,3.3-.6,1-1.4,1.8-2.5,2.5-.9.6-1.7,1-2.6,1.2-.9.2-1.8.3-2.7.3-.9,0-1.7-.2-2.6-.6-.8-.3-1.6-.8-2.4-1.4l-4.1,9.6c-.2.4-.4.8-.5,1s-.4.5-.6.6c-.4.2-.7.4-1.1.4-.4,0-.8,0-1.2-.1-.4-.1-.8-.3-1.1-.6-.4-.3-.7-.6-.9-.9s-.4-.7-.4-1c0-.3,0-.7,0-1,0-.1,0-.2,0-.4,0-.1,0-.2.1-.3,0-.1.1-.2.2-.4s.1-.3.2-.4l5.2-10.8-1.7-2.5-8,5.3ZM70.4,544.9c.5.8,1.1,1.5,1.7,2,.6.5,1.2.8,1.8,1,.6.2,1.2.2,1.8.1.6-.1,1.2-.4,1.7-.7.5-.4,1-.8,1.3-1.3s.5-1,.6-1.6c0-.6,0-1.3-.3-2-.3-.7-.7-1.6-1.3-2.5l-1.6-2.4-7.3,4.9,1.7,2.6Z" fill="#fff"/>
      <path d="M90.3,554.1c.7-.5,1.4-.7,2-.6.7.1,1.3.6,2,1.4.6.8.9,1.6.9,2.3,0,.7-.4,1.3-1.1,1.8l-20,15.3c-.7.5-1.4.7-2,.6-.7-.1-1.3-.6-2-1.4-.6-.8-.9-1.6-.8-2.3,0-.7.4-1.3,1.1-1.8l20-15.3Z" fill="#fff"/>
      <path d="M97.8,566.5c1-.9,2.1-1.4,3-1.3,1,0,1.9.6,2.9,1.7.4.5.8,1,1,1.4.2.4.3.9.4,1.4,0,.5,0,.9,0,1.4-.1.5-.2,1-.4,1.6l-5.2,17.4c-.2.6-.4,1.2-.6,1.8-.2.6-.4,1.1-.6,1.5-.2.5-.4,1-.6,1.4h.1c.4-.3.7-.7,1.1-1.2.3-.4.7-.8,1.2-1.2.4-.5.9-.9,1.4-1.4l11.3-10.4c.5-.5,1.1-.7,1.8-.7s1.3.4,1.9,1.1c.6.7.9,1.3.9,2,0,.6-.3,1.2-.9,1.7l-17.9,16c-1.1.9-2.1,1.4-3.1,1.3-1,0-1.9-.6-2.9-1.7-.4-.5-.8-1-1-1.4-.2-.4-.3-.9-.4-1.4,0-.5,0-.9,0-1.4.1-.5.2-1,.4-1.6l5.2-17.4c.2-.6.4-1.2.6-1.8.2-.6.4-1.1.6-1.5.2-.5.4-1,.6-1.4h0c-.4.3-.7.7-1.1,1.2-.3.4-.7.8-1.2,1.2-.5.5-.9.9-1.4,1.4l-11.3,10.4c-.5.5-1.1.7-1.8.7-.6,0-1.3-.4-1.9-1.1-.6-.7-.9-1.3-.9-2,0-.6.3-1.2.9-1.7l17.9-16Z" fill="#fff"/>
      <path d="M121.7,611.7c-.5-.4-.7-.9-.7-1.5s.3-1.1.8-1.6c.5-.5,1-.8,1.5-.9s1,.1,1.5.6l5.4,5c.6.6.9,1.2,1,1.8,0,.6-.2,1.2-.8,1.9l-6,6.6c-.5.5-1,.9-1.4,1.1-.5.2-1,.3-1.5.3-.4,0-.9,0-1.4-.2-.6-.1-1.2-.4-2-.7-.7-.3-1.5-.8-2.4-1.4s-1.8-1.3-2.7-2.2c-1.8-1.6-3.1-3.3-4.1-5.1-.9-1.8-1.5-3.6-1.6-5.4-.1-1.8.2-3.6.9-5.5.7-1.8,1.9-3.6,3.4-5.3,1.7-1.8,3.4-3.2,5.3-4.2,1.9-1,3.9-1.5,5.9-1.6,2,0,4,.3,6.1,1.1,2,.8,4,2.1,5.9,3.8.8.7,1.5,1.5,2,2.2.6.7,1,1.4,1.4,2.1.3.6.6,1.2.8,1.8s.3,1,.3,1.3c0,.4,0,.8-.1,1.1s-.3.7-.6,1c-.2.2-.5.4-.7.6-.3.1-.5.2-.8.2-.3,0-.5,0-.8-.1-.3-.1-.5-.3-.7-.5-.3-.2-.5-.6-.6-1-.2-.4-.4-.8-.6-1.4-.2-.5-.6-1.1-1.1-1.8s-1.1-1.4-2-2.2c-1.1-1-2.2-1.7-3.4-2.1-1.2-.5-2.4-.6-3.6-.5-1.2,0-2.5.5-3.7,1.2-1.2.7-2.5,1.7-3.6,3-1.2,1.3-2.1,2.6-2.6,3.9-.6,1.3-.8,2.6-.8,3.8,0,1.2.3,2.4.9,3.6.6,1.2,1.4,2.2,2.5,3.3.5.5,1,.8,1.4,1.1.4.3.8.5,1.1.7.4.2.7.3,1,.4l4.7-5.2-3.1-2.8Z" fill="#fff"/>
      <path d="M146.2,643.4c-.5.7-1.1,1.1-1.7,1.2-.7.1-1.4-.1-2.3-.7-.9-.6-1.4-1.2-1.5-1.9-.1-.7,0-1.4.5-2.1l14.2-20.8c.5-.7,1.1-1.1,1.7-1.2.7-.1,1.4.1,2.3.7.9.6,1.4,1.2,1.5,1.9.1.7,0,1.4-.5,2.1l-5.6,8.1,10,6.9,5.6-8.1c.5-.7,1.1-1.1,1.7-1.2.7-.1,1.4.1,2.3.7.8.6,1.3,1.2,1.5,1.9.2.7,0,1.4-.5,2.1l-14.2,20.8c-.5.7-1.1,1.1-1.7,1.2s-1.4-.1-2.3-.7c-.9-.6-1.4-1.2-1.5-1.9-.1-.7,0-1.4.5-2.1l5.9-8.6-10-6.9-5.9,8.6Z" fill="#fff"/>
      <path d="M176.5,660.1l9,5.1c.5.3.9.7,1,1.3s0,1.1-.4,1.8c-.4.7-.8,1.1-1.4,1.3-.5.2-1.1,0-1.6-.2l-11.9-6.7c-.8-.4-1.3-1-1.4-1.7-.2-.7,0-1.4.4-2.1l12.1-21.5c.4-.8,1-1.2,1.6-1.4.7-.2,1.4,0,2.2.4l11.8,6.6c.6.3.9.7,1,1.3.1.5,0,1.1-.4,1.8s-.8,1.1-1.4,1.3-1.1,0-1.6-.2l-8.9-5-3.8,6.7,7.6,4.3c.5.3.9.7,1,1.2.1.5,0,1.1-.4,1.8-.4.7-.8,1.1-1.3,1.2-.5.2-1,0-1.6-.2l-7.6-4.3-4.1,7.3Z" fill="#fff"/>
      <path d="M199,674.3c-.4.8-.9,1.3-1.5,1.5-.6.2-1.4.1-2.4-.3-.9-.4-1.5-1-1.8-1.6-.2-.6-.2-1.3.2-2.1l10.4-22.7c.4-.8.9-1.3,1.5-1.6s1.4-.2,2.2.2l5.9,2.7c1.9.9,3.4,1.8,4.6,2.8s2.1,2.1,2.6,3.2c.6,1.1.8,2.2.8,3.4,0,1.2-.3,2.3-.8,3.4-.4.9-1,1.8-1.6,2.4-.6.7-1.3,1.2-2.1,1.6-.8.4-1.6.7-2.5.9-.9.2-1.8.2-2.8,0l1.5,10.3c0,.5,0,.8,0,1.1s0,.6-.2.9c-.2.4-.4.7-.8.9-.3.2-.7.4-1.1.5-.4.1-.8.2-1.3.1-.4,0-.9-.1-1.2-.3-.4-.2-.7-.4-.9-.7-.2-.3-.4-.5-.5-.9,0-.1,0-.2-.1-.3,0-.1,0-.2,0-.4,0-.1,0-.2,0-.4,0-.1,0-.3,0-.5l-1.3-11.9-2.8-1.3-4,8.7ZM207.8,662.7c.9.4,1.7.7,2.5.8.8.1,1.4,0,2,0,.6-.2,1.1-.4,1.6-.8.4-.4.8-.9,1.1-1.5.3-.6.4-1.2.4-1.8,0-.6-.1-1.1-.4-1.7s-.7-1.1-1.3-1.6c-.6-.5-1.4-1-2.4-1.4l-2.7-1.2-3.7,8,2.8,1.3Z" fill="#fff"/>
      <path d="M223.3,672c.8-2.4,1.9-4.4,3.2-6,1.3-1.6,2.8-2.9,4.5-3.8,1.7-.9,3.5-1.4,5.5-1.4,2,0,4,.2,6.1,1,2,.7,3.8,1.7,5.2,2.9,1.4,1.2,2.5,2.7,3.3,4.3.8,1.6,1.1,3.5,1.2,5.5,0,2-.3,4.1-1.1,6.4-.8,2.4-1.9,4.4-3.2,6-1.3,1.6-2.8,2.9-4.5,3.8s-3.5,1.4-5.5,1.4c-2,0-4-.2-6.1-1-2-.7-3.8-1.7-5.2-2.9-1.4-1.2-2.5-2.7-3.3-4.3-.8-1.6-1.2-3.5-1.2-5.5,0-2,.3-4.1,1.1-6.4ZM229.4,673.6c-.6,1.7-.9,3.2-.9,4.6,0,1.4.2,2.7.6,3.8.4,1.1,1,2,1.8,2.8.8.8,1.8,1.3,2.9,1.7,1.1.4,2.2.5,3.3.4s2.2-.5,3.2-1.1,1.9-1.5,2.8-2.6c.8-1.1,1.5-2.5,2.1-4.2.6-1.7.9-3.2.9-4.6,0-1.4-.2-2.7-.6-3.8-.4-1.1-1-2-1.9-2.8-.8-.8-1.8-1.3-2.9-1.7-1.1-.4-2.2-.5-3.3-.4s-2.1.5-3.1,1c-1,.6-1.9,1.5-2.8,2.6-.8,1.1-1.6,2.5-2.1,4.2Z" fill="#fff"/>
      <path d="M261.8,694.5l10,2.5c.6.2,1.1.5,1.3.9.3.5.3,1.1.1,1.9-.2.8-.5,1.3-1,1.6-.5.3-1,.4-1.6.2l-13.3-3.3c-.9-.2-1.5-.6-1.8-1.2-.4-.6-.4-1.3-.2-2.2l5.9-24c.2-.9.6-1.5,1.2-1.8.6-.4,1.3-.4,2.2-.2l13.2,3.2c.6.2,1.1.5,1.3.9.3.5.3,1.1.1,1.9-.2.8-.5,1.3-1,1.6-.5.3-1,.4-1.6.2l-9.9-2.4-1.8,7.5,8.5,2.1c.6.1,1,.5,1.3.9s.3,1.1.1,1.8c-.2.7-.5,1.3-1,1.6-.5.3-1,.4-1.6.2l-8.5-2.1-2,8.1Z" fill="#fff"/>
      <path d="M283.3,682.1c.2-1.3.6-2.4,1.3-3.4.6-1,1.5-1.8,2.5-2.5,1-.6,2.3-1.1,3.7-1.3,1.4-.2,3-.2,4.8.1.9.1,1.7.3,2.4.6.7.2,1.4.5,1.9.8.5.3,1,.6,1.4.9.4.3.7.6.9.8.3.4.4.7.5,1,0,.3,0,.7,0,1.1-.1.7-.4,1.1-.8,1.4s-1,.4-1.6.3c-.4,0-.7-.2-1-.4s-.7-.4-1.1-.6c-.4-.2-.9-.5-1.5-.7s-1.3-.4-2.2-.6c-.8-.1-1.5-.2-2.1,0-.6,0-1.1.2-1.6.5-.4.2-.8.6-1,1-.2.4-.4.8-.5,1.3-.1.7,0,1.4.3,1.9.3.5.8,1,1.4,1.5.6.5,1.3.9,2.1,1.3.8.4,1.6.8,2.4,1.3.8.5,1.6,1,2.3,1.5.8.6,1.4,1.2,2,2s.9,1.6,1.2,2.6.2,2.1,0,3.5c-.2,1.3-.7,2.5-1.3,3.6-.7,1.1-1.6,1.9-2.6,2.6s-2.4,1.1-3.9,1.3c-1.5.2-3.2.2-5.1-.1-1-.2-1.9-.4-2.7-.6-.8-.3-1.5-.5-2.1-.8s-1.1-.6-1.5-.9-.7-.6-.9-.8c-.3-.4-.4-.7-.5-1,0-.3,0-.7,0-1.1.1-.7.4-1.2.8-1.5s1-.4,1.6-.3c.4,0,.7.2,1,.4.3.2.7.4,1.1.7.4.2,1,.5,1.6.7s1.5.5,2.5.6c.9.1,1.7.2,2.3,0,.7,0,1.3-.3,1.7-.5.5-.3.9-.6,1.1-1.1.3-.4.5-.9.6-1.5.1-.8,0-1.5-.3-2-.3-.6-.8-1.1-1.3-1.6-.6-.5-1.3-.9-2-1.4s-1.6-.9-2.4-1.3c-.8-.5-1.6-1-2.3-1.5-.8-.5-1.4-1.2-1.9-1.9-.5-.7-.9-1.6-1.2-2.5-.2-.9-.3-2,0-3.3Z" fill="#fff"/>
      <path d="M358.9,695.7c.6,0,1.1.2,1.4.6s.5,1,.5,1.7c0,.7-.2,1.3-.6,1.7-.4.4-.8.6-1.5.6l-34.3-.6c-.6,0-1.1-.2-1.4-.6-.3-.4-.5-1-.5-1.7,0-.8.2-1.3.6-1.7.4-.4.8-.6,1.5-.6l34.3.6Z" fill="#fff"/>
      <path d="M390.6,702.2l10.2-1.4c.6,0,1.1,0,1.6.4.4.3.7.9.8,1.7.1.8,0,1.4-.3,1.8-.3.4-.8.7-1.4.8l-13.5,1.8c-.9.1-1.6,0-2.1-.5-.5-.4-.9-1.1-1-1.9l-3.3-24.5c-.1-.9,0-1.6.4-2.1.4-.6,1.1-.9,1.9-1l13.4-1.8c.6,0,1.2,0,1.6.4.4.3.7.9.8,1.7.1.8,0,1.4-.3,1.8s-.8.7-1.4.8l-10.1,1.4,1,7.6,8.6-1.2c.6,0,1.1,0,1.5.4s.7.9.8,1.7c.1.8,0,1.4-.3,1.8-.3.4-.8.7-1.4.8l-8.6,1.2,1.1,8.3Z" fill="#fff"/>
      <path d="M407.4,678.1c0-.7-.1-1.3,0-1.8,0-.5.2-1,.5-1.4.3-.4.7-.8,1.2-1.1.5-.3,1.2-.6,2.1-.8.7-.2,1.3-.2,1.9-.2.5,0,1,.2,1.5.4.4.2.8.5,1.2.9.4.4.7.8,1,1.4l8.6,14.7c.3.5.5,1,.8,1.4.2.5.5.9.6,1.2.2.4.4.8.6,1.2h0c0-.4,0-.9,0-1.3,0-.4,0-.8,0-1.4,0-.5,0-1.1,0-1.6l1-17c0-.6.1-1.2.3-1.7.1-.5.4-1,.7-1.4.3-.4.7-.7,1.1-1s1.1-.5,1.8-.7c.8-.2,1.5-.3,2.1-.2.6,0,1.1.2,1.5.5.4.3.8.6,1.1,1,.3.4.6,1,.8,1.6l7.7,21.6c0,.3.2.5.2.7,0,.2.1.3.1.5,0,.4,0,.7,0,1s-.3.6-.5.9c-.2.3-.5.5-.9.7s-.7.4-1.2.5c-.4.1-.9.1-1.3,0-.4,0-.8-.2-1.1-.3-.4-.2-.6-.5-.8-.9-.2-.4-.3-.8-.5-1.3l-5.3-15.7c-.2-.6-.4-1.1-.5-1.6-.1-.5-.3-1-.4-1.4-.1-.5-.2-.9-.3-1.4h0s-1.1,21.4-1.1,21.4c0,.7-.1,1.3-.2,1.8s-.3,1-.5,1.3c-.2.4-.6.7-1,1s-.9.4-1.5.6c-.6.2-1.2.2-1.7.2s-.9-.2-1.3-.4c-.4-.2-.7-.5-1-1s-.7-.9-1-1.5l-10.8-18.5h0c.1.4.2.9.3,1.4,0,.4.2.9.3,1.4.1.5.2,1.1.3,1.7l2.6,16.4c0,.5.1,1,.1,1.4,0,.4,0,.8-.3,1.2-.2.3-.4.6-.8.8-.3.2-.7.4-1.1.5-.4,0-.8.1-1.2.1-.4,0-.7,0-1.1-.2-.3-.1-.6-.3-.8-.6s-.4-.5-.5-.9c0-.2,0-.4,0-.5s0-.4-.1-.7l-3-22.8Z" fill="#fff"/>
      <path d="M460.2,688c.3.8.3,1.5,0,2.1-.3.6-1,1.1-1.9,1.4-1,.4-1.8.4-2.4.1-.6-.3-1.1-.8-1.4-1.6l-8.4-23.5c-.3-.8-.3-1.6,0-2.2.3-.6.9-1.1,1.7-1.4l6-2.1c1.8-.7,3.5-1,5-1.1s2.8.1,4,.6,2.2,1.1,3,2c.8.9,1.5,2,1.9,3.3.5,1.4.8,2.8.7,4.2s-.4,2.6-1,3.8c-.6,1.2-1.6,2.2-2.8,3.2-1.2,1-2.8,1.8-4.7,2.5l-2.4.9,2.8,7.8ZM458.6,674.9c1.6-.6,2.8-1.5,3.3-2.7.6-1.2.6-2.5,0-4-.5-1.5-1.4-2.5-2.5-3-1.1-.5-2.6-.4-4.4.2l-2.6.9,3.4,9.5,2.7-1Z" fill="#fff"/>
      <path d="M474.9,669.7c-1.1-2.3-1.7-4.5-1.9-6.6s0-4.1.6-5.9c.6-1.8,1.6-3.4,2.9-4.9,1.3-1.4,3-2.6,5-3.6,1.9-.9,3.9-1.4,5.8-1.6,1.9-.1,3.7.1,5.4.8,1.7.7,3.2,1.7,4.7,3.1,1.4,1.4,2.6,3.2,3.6,5.3,1.1,2.3,1.7,4.4,1.9,6.5s0,4-.6,5.8c-.6,1.8-1.6,3.4-2.9,4.9-1.3,1.4-3,2.6-5,3.6-1.9.9-3.9,1.4-5.8,1.6-1.9.1-3.7-.1-5.4-.8-1.7-.6-3.2-1.7-4.7-3.1-1.4-1.4-2.6-3.2-3.6-5.3ZM480.4,666.6c.7,1.6,1.6,2.9,2.6,3.9s2,1.8,3.1,2.3,2.2.7,3.3.7c1.1,0,2.2-.3,3.2-.8s1.9-1.2,2.7-2c.7-.8,1.2-1.8,1.5-3,.3-1.1.3-2.4.2-3.8-.2-1.4-.6-2.9-1.4-4.5-.7-1.6-1.6-2.9-2.6-3.9s-2-1.8-3.1-2.3c-1.1-.5-2.2-.7-3.3-.7-1.1,0-2.2.3-3.2.8-1,.5-1.9,1.2-2.6,2-.7.8-1.2,1.8-1.5,2.9-.3,1.1-.4,2.4-.2,3.8.2,1.4.6,2.9,1.4,4.5Z" fill="#fff"/>
      <path d="M500.2,645.2c-.4-.4-.6-.6-.8-.8-.1-.1-.2-.3-.3-.4-.2-.4-.4-.8-.4-1.2,0-.4,0-.8.2-1.1s.3-.7.6-1c.3-.3.6-.6.9-.8.4-.2.7-.4,1.1-.4s.7,0,1,0c.4,0,.7.3,1,.5.3.2.6.5.9.9l12.7,12.5c.4.4.8.9,1.2,1.2.4.4.7.7,1,1,.3.4.6.7.8,1h0c-.2-.4-.3-.8-.5-1.2-.1-.4-.3-.8-.5-1.3-.2-.5-.4-1.1-.6-1.7l-5.5-16.4c-.4-1.2-.5-2.2-.1-3,.3-.8,1-1.5,1.9-2.1,1-.6,1.9-.9,2.7-.8.9,0,1.7.5,2.7,1.5l12.3,12.1c.4.4.8.8,1.2,1.2.4.4.7.8,1,1.1.3.4.6.7.9,1h0c-.2-.5-.4-.9-.6-1.4-.2-.4-.3-.8-.5-1.3s-.4-1-.6-1.6l-5.9-16.7c-.2-.5-.3-.9-.4-1.3s-.1-.7,0-1.1c0-.3.2-.7.5-.9.2-.3.5-.5.9-.8.3-.2.7-.4,1-.5.4-.1.7-.1,1.1-.1.4,0,.7.1,1,.3.3.2.6.4.8.8,0,0,0,.1.1.2s0,.2.1.3c0,.1,0,.2.2.4,0,.2.1.4.2.6l7.2,22.2c.2.6.3,1.2.4,1.7,0,.5,0,1,0,1.4-.1.5-.4,1-.8,1.5-.4.5-.9.9-1.6,1.3-.7.4-1.3.7-1.8.8s-1.1.1-1.6,0c-.4-.1-.9-.3-1.3-.6s-.8-.7-1.3-1.1l-11.9-11.6c-.4-.4-.7-.7-1.1-1.1-.3-.4-.7-.7-.9-1-.3-.4-.6-.7-.9-1h0c.2.5.4.9.6,1.3.2.4.3.8.5,1.3.2.5.4,1,.5,1.5l5.2,15.8c.2.6.3,1.2.4,1.6.1.5,0,1,0,1.4-.1.5-.4,1-.7,1.5-.4.4-.9.9-1.6,1.3-.7.4-1.3.7-1.9.9s-1.1.2-1.7,0c-.4-.1-.9-.3-1.3-.6-.4-.3-.9-.7-1.3-1.1l-16.7-16Z" fill="#fff"/>
      <path d="M556.4,633.2l8.1-6.4c.5-.4,1-.5,1.6-.5s1.1.4,1.5,1.1c.5.6.7,1.2.7,1.7,0,.5-.3,1-.8,1.4l-10.7,8.4c-.7.6-1.4.8-2.1.7s-1.3-.5-1.8-1.2l-15.3-19.4c-.5-.7-.8-1.4-.7-2.1s.5-1.3,1.2-1.9l10.7-8.4c.5-.4,1-.6,1.6-.5s1.1.4,1.5,1.1c.5.6.7,1.2.7,1.8,0,.5-.3,1-.8,1.4l-8,6.3,4.8,6.1,6.9-5.4c.5-.4,1-.5,1.5-.4.5,0,1,.4,1.5,1,.5.6.7,1.2.6,1.7,0,.5-.3,1-.8,1.4l-6.9,5.4,5.2,6.6Z" fill="#fff"/>
      <path d="M578.2,617.8c.6.6.9,1.3.8,2,0,.7-.4,1.4-1.2,2.1-.8.7-1.5,1.1-2.2,1-.7,0-1.3-.3-1.9-1l-17-18.3c-.6-.6-.9-1.3-.9-2s.4-1.3,1-1.9l4.7-4.4c1.5-1.4,3-2.5,4.4-3.2,1.4-.7,2.7-1.1,3.9-1.2,1.2,0,2.4,0,3.4.5,1.1.5,2,1.1,2.9,2.1.7.8,1.3,1.6,1.6,2.4.4.8.6,1.7.7,2.6,0,.9,0,1.8-.2,2.6-.2.9-.5,1.7-1,2.6l10.1,2.5c.4.1.8.2,1.1.4.3.1.5.3.7.5.3.3.5.7.6,1.1,0,.4.1.8,0,1.2,0,.4-.2.8-.4,1.2-.2.4-.5.7-.8,1-.3.3-.6.5-1,.6-.3.1-.7.2-1,.1-.1,0-.2,0-.4,0-.1,0-.2,0-.4,0s-.2,0-.4,0c-.1,0-.3,0-.4-.1l-11.5-3.4-2.2,2.1,6.5,7ZM570.8,605.3c.7-.7,1.3-1.3,1.7-2,.4-.7.6-1.3.7-1.9,0-.6,0-1.2-.2-1.8-.2-.6-.5-1.1-1-1.6s-.9-.8-1.5-1.1c-.5-.2-1.1-.3-1.7-.3-.6,0-1.3.3-2,.6-.7.4-1.4.9-2.2,1.7l-2.1,2,6,6.5,2.3-2.1Z" fill="#fff"/>
      <path d="M576.8,584.1c-.6-.6-.9-1.2-.9-1.9,0-.7.4-1.4,1.1-2.2.7-.8,1.4-1.2,2.1-1.2.7,0,1.3.2,2,.8l18.3,17.3c.6.6.9,1.2.9,1.9,0,.7-.4,1.4-1.1,2.2-.7.8-1.4,1.2-2.1,1.2-.7,0-1.3-.2-2-.8l-18.3-17.3Z" fill="#fff"/>
      <path d="M587.8,574.7c-1.1-.9-1.7-1.8-1.8-2.8,0-1,.3-2,1.2-3.1.4-.5.8-.9,1.2-1.2.4-.3.8-.5,1.3-.6.4-.1.9-.2,1.4-.1s1,0,1.6.2l18,2.4c.6,0,1.3.2,1.9.3.6.1,1.1.2,1.6.3.5.1,1,.2,1.5.4h0c-.4-.4-.9-.7-1.4-1-.4-.3-.9-.6-1.4-1-.5-.4-1.1-.8-1.6-1.2l-12.1-9.5c-.6-.4-.9-1-1-1.6,0-.6.2-1.3.8-2,.6-.7,1.2-1.1,1.8-1.2.6,0,1.2.1,1.8.6l18.6,15.1c1.1.9,1.7,1.8,1.8,2.8,0,1-.3,2-1.2,3.1-.4.5-.8.9-1.2,1.2s-.8.5-1.3.6c-.4.1-.9.2-1.4.1s-1,0-1.6-.2l-18-2.4c-.6,0-1.3-.2-1.9-.3-.6-.1-1.1-.2-1.6-.3-.5-.1-1-.2-1.5-.4h0c.4.4.9.7,1.4,1,.4.3.9.6,1.4,1,.5.4,1.1.8,1.6,1.2l12.1,9.5c.6.4.9,1,1,1.6,0,.6-.2,1.3-.8,2s-1.2,1.1-1.8,1.2c-.6,0-1.2-.1-1.8-.6l-18.6-15.1Z" fill="#fff"/>
      <path d="M628.6,544.1c-.4.5-.8.8-1.3.9-.5,0-1.1,0-1.7-.5-.6-.4-1-.8-1.1-1.4-.1-.5,0-1,.3-1.6l4-6.2c.5-.7,1-1.1,1.6-1.2s1.3,0,2,.5l7.5,4.9c.6.4,1,.8,1.3,1.2.3.4.4.9.5,1.5,0,.4,0,.9,0,1.5s-.2,1.3-.4,2.1c-.2.8-.5,1.7-1,2.6s-1,2-1.7,3.1c-1.3,2-2.8,3.6-4.4,4.8-1.6,1.2-3.3,2-5.1,2.4-1.8.4-3.6.4-5.5,0-1.9-.4-3.8-1.3-5.8-2.5-2.1-1.4-3.7-2.9-5-4.6-1.3-1.7-2.1-3.6-2.5-5.5-.4-2-.4-4,0-6.1.5-2.1,1.4-4.3,2.9-6.5.6-.9,1.2-1.7,1.8-2.4.6-.7,1.2-1.2,1.8-1.7.6-.4,1.1-.8,1.6-1,.5-.2.9-.4,1.2-.5.4,0,.8-.1,1.1,0,.3,0,.7.2,1.1.5.3.2.5.4.7.6.2.2.3.5.3.7s0,.5,0,.8c0,.3-.2.5-.3.8-.2.3-.5.6-.8.8-.4.2-.8.5-1.3.8-.5.3-1,.8-1.6,1.3-.6.6-1.2,1.3-1.9,2.3-.8,1.2-1.3,2.4-1.6,3.7-.3,1.2-.3,2.5,0,3.7.3,1.2.9,2.4,1.7,3.5.9,1.1,2,2.2,3.5,3.1,1.5,1,2.9,1.6,4.3,2s2.7.4,3.9.2,2.4-.7,3.4-1.5c1-.8,2-1.8,2.8-3,.4-.6.7-1.1.9-1.5.2-.5.4-.8.5-1.2.1-.4.2-.7.2-1l-5.9-3.9-2.3,3.5Z" fill="#fff"/>
      <path d="M658.1,505.2c.3-.6.7-1,1.2-1.1.5-.2,1.2,0,1.9.3.7.4,1.2.8,1.4,1.3.2.5.1,1.1-.2,1.7l-5.8,11.8c-.4.8-.9,1.3-1.6,1.5-.7.2-1.4.1-2.2-.3l-22.4-11c-.8-.4-1.3-.9-1.5-1.6s0-1.4.4-2.4c.5-.9,1-1.5,1.7-1.8.6-.2,1.3-.2,2.1.2l20.5,10,4.3-8.8Z" fill="#fff"/>
      <path d="M640.5,488.4c-.8-.3-1.3-.8-1.6-1.5-.2-.6-.2-1.4.2-2.4.4-1,.9-1.6,1.5-1.9s1.3-.2,2.1,0l23.2,9.7c.8.3,1.3.8,1.6,1.5.2.6.2,1.4-.3,2.4-.4,1-.9,1.6-1.5,1.9s-1.3.2-2.1,0l-23.2-9.7Z" fill="#fff"/>
      <path d="M647,477.9c-.5,0-.9,0-1.1,0-.2,0-.5,0-.7-.1-.4-.1-.8-.4-1-.7-.3-.3-.4-.7-.6-1.1-.1-.4-.2-.8-.2-1.2,0-.4,0-.8.2-1.2.1-.4.3-.7.5-1s.5-.5.7-.6c.3-.1.6-.2.9-.2s.8,0,1.3,0l18.3.4c.6,0,1.1,0,1.7,0,.5,0,1,0,1.5,0,.5,0,1,0,1.4.1h0c-.4-.3-.8-.5-1.2-.8-.4-.2-.8-.5-1.2-.8s-.9-.6-1.4-1l-14.8-10.7c-.4-.3-.7-.6-1-.8-.3-.2-.5-.5-.6-.8-.1-.3-.2-.6-.2-.9,0-.3,0-.7.2-1.1.1-.3.3-.7.5-1,.2-.3.5-.6.8-.8.3-.2.7-.4,1-.5s.8,0,1.2,0c.2,0,.3.1.6.3s.5.4,1,.7l19,14.5c.5.4.9.7,1.2,1.1s.6.7.8,1.1c.2.4.3.9.3,1.5s-.1,1.3-.4,2.1c-.3.8-.6,1.4-1,1.9s-.8.8-1.2,1c-.4.2-.8.3-1.3.4-.5,0-1,.1-1.6.1l-23.6-.2Z" fill="#fff"/>
      <path d="M678.5,448l2.5-10c.2-.6.5-1,1-1.3.5-.3,1.1-.3,1.9-.1.8.2,1.3.5,1.6,1,.3.5.4,1,.2,1.6l-3.3,13.3c-.2.9-.6,1.5-1.2,1.8-.6.3-1.3.4-2.2.2l-24-6c-.9-.2-1.5-.6-1.8-1.2-.4-.6-.4-1.3-.2-2.2l3.3-13.1c.2-.6.5-1.1.9-1.3.5-.3,1.1-.3,1.9-.1.8.2,1.3.5,1.6,1,.3.5.4,1,.2,1.6l-2.5,9.9,7.5,1.9,2.1-8.5c.1-.6.5-1,.9-1.3.5-.3,1.1-.3,1.8-.1.7.2,1.3.5,1.5,1,.3.5.4,1,.2,1.6l-2.1,8.5,8.1,2Z" fill="#fff"/>
      <path d="M666.2,426.5c-1.3-.2-2.4-.6-3.4-1.3-1-.6-1.8-1.5-2.4-2.5-.6-1.1-1.1-2.3-1.3-3.7-.2-1.4-.2-3,.1-4.8.2-.9.3-1.7.6-2.4.2-.7.5-1.4.8-1.9s.6-1,.9-1.4c.3-.4.6-.7.8-.8.4-.3.7-.4,1-.5.3,0,.7,0,1.1,0,.7.1,1.1.4,1.4.8.3.5.4,1,.3,1.6,0,.4-.2.7-.4,1-.2.3-.4.7-.6,1.1-.2.4-.5.9-.7,1.5s-.4,1.3-.6,2.2c-.1.8-.2,1.5,0,2.1,0,.6.2,1.1.5,1.6.2.4.6.8.9,1,.4.3.8.4,1.3.5.7.1,1.4,0,1.9-.3s1.1-.8,1.5-1.4c.5-.6.9-1.3,1.3-2.1.4-.8.9-1.6,1.3-2.4.5-.8,1-1.6,1.5-2.3.6-.8,1.2-1.4,2-1.9.8-.5,1.6-.9,2.6-1.2,1-.2,2.1-.2,3.5,0,1.3.2,2.5.7,3.6,1.4s1.9,1.6,2.6,2.7c.7,1.1,1.1,2.4,1.3,3.9.2,1.5.2,3.2-.2,5.1-.2,1-.4,1.9-.6,2.7-.3.8-.5,1.5-.8,2.1-.3.6-.6,1.1-.9,1.5-.3.4-.6.7-.8.9-.4.3-.7.4-1,.5-.3,0-.7,0-1.1,0-.7-.1-1.2-.4-1.5-.9-.3-.5-.4-1-.3-1.6,0-.4.2-.7.4-1,.2-.3.4-.7.7-1.1.2-.4.5-1,.8-1.6.3-.6.5-1.5.7-2.5.1-.9.2-1.7,0-2.3s-.3-1.3-.5-1.7-.6-.9-1.1-1.2c-.4-.3-.9-.5-1.5-.6-.8-.1-1.5,0-2,.3-.6.3-1.1.7-1.6,1.3-.5.6-.9,1.3-1.4,2-.4.8-.9,1.6-1.3,2.4-.5.8-1,1.6-1.5,2.3-.5.8-1.2,1.4-1.9,1.9-.7.5-1.6.9-2.5,1.2-.9.2-2,.3-3.3,0Z" fill="#fff"/>
    </g>
  </g>
  <g id="Text_TOP_outline">
    <g>
      <path d="M22,285.6c-4.4-1.3-8.1-3.1-11.2-5.3-3.1-2.2-5.6-4.8-7.3-7.8-1.8-2.9-2.9-6.1-3.2-9.6-.4-3.4,0-7,1.1-10.7.5-1.6,1-3,1.6-4.2.6-1.2,1.3-2.3,1.9-3.2.6-.9,1.3-1.6,1.9-2.2.6-.6,1.2-1,1.7-1.2.7-.4,1.4-.6,2-.7.6,0,1.3,0,2.1.2.5.2,1,.4,1.4.7.4.3.7.7.9,1.1.2.4.4.9.4,1.4,0,.5,0,1-.1,1.5-.2.6-.5,1.1-.9,1.5-.4.5-.9,1-1.4,1.6-.5.6-1.1,1.4-1.7,2.4-.6.9-1.1,2.2-1.6,3.7-.6,1.9-.7,3.8-.5,5.8.3,1.9,1,3.8,2.2,5.5,1.2,1.8,2.8,3.3,4.9,4.8,2.1,1.4,4.7,2.6,7.8,3.6,2.8.8,5.4,1.2,7.8,1.1,2.4,0,4.5-.5,6.4-1.4,1.9-.9,3.4-2.1,4.7-3.6,1.3-1.6,2.3-3.4,2.9-5.5.4-1.5.7-2.8.7-3.9s0-2.1,0-2.9c0-.8-.2-1.6-.3-2.2,0-.6,0-1.2,0-1.8.1-.4.3-.8.6-1.2.3-.3.6-.6,1-.8.4-.2.8-.3,1.3-.3.5,0,1,0,1.5.2.7.2,1.2.5,1.7.9.5.4.9.9,1.2,1.6.3.6.6,1.3.8,2.3.2.9.4,2,.5,3.3,0,1.2,0,2.6-.2,4.2-.2,1.6-.5,3.2-1.1,5.1-1,3.5-2.6,6.5-4.6,9.1-2,2.6-4.4,4.5-7.1,6-2.7,1.4-5.8,2.2-9.2,2.5-3.4.2-7-.2-10.8-1.4Z" fill="#fff"/>
      <path d="M35.5,237.6c-4-2-7.3-4.3-9.9-7-2.6-2.7-4.5-5.6-5.6-8.8-1.2-3.2-1.6-6.5-1.3-10,.3-3.5,1.3-7,3.1-10.6,1.7-3.4,3.8-6.3,6.3-8.6,2.5-2.3,5.3-3.9,8.3-4.9,3.1-1,6.4-1.2,9.9-.9s7.2,1.5,11,3.4c4,2,7.3,4.3,9.9,7,2.6,2.7,4.5,5.6,5.6,8.8,1.2,3.2,1.6,6.5,1.3,10s-1.3,7-3.1,10.5c-1.7,3.4-3.8,6.3-6.3,8.6-2.5,2.3-5.3,3.9-8.3,4.9-3.1,1-6.4,1.3-9.9.9-3.5-.4-7.2-1.5-11-3.4ZM39.8,227.2c2.8,1.4,5.4,2.3,7.9,2.6,2.5.4,4.7.3,6.8-.2,2-.5,3.8-1.4,5.4-2.6,1.5-1.3,2.8-2.8,3.7-4.7.9-1.8,1.4-3.8,1.5-5.7,0-2-.3-3.9-1.2-5.8-.8-1.9-2.2-3.7-3.9-5.4-1.8-1.7-4.1-3.3-6.9-4.7-2.8-1.4-5.4-2.3-7.9-2.6-2.5-.4-4.8-.3-6.8.2s-3.8,1.4-5.4,2.6c-1.5,1.3-2.8,2.8-3.7,4.7s-1.4,3.7-1.5,5.7c0,2,.3,3.9,1.2,5.8.8,1.9,2.1,3.7,3.9,5.4,1.8,1.7,4.1,3.3,6.9,4.7Z" fill="#fff"/>
      <path d="M90.2,183.6c1.2.9,1.9,2,2.1,3.2.2,1.2-.3,2.5-1.4,4-1.1,1.5-2.2,2.3-3.4,2.5-1.2.2-2.4-.1-3.6-1.1l-35.8-26.1c-1.3-.9-2-2-2.2-3.2s.2-2.5,1.1-3.7l6.8-9.3c2.2-3,4.3-5.3,6.5-7,2.2-1.7,4.3-2.9,6.5-3.5,2.1-.6,4.2-.7,6.2-.2,2,.4,3.9,1.3,5.7,2.6,1.5,1.1,2.7,2.3,3.7,3.6,1,1.3,1.7,2.8,2.1,4.3.5,1.5.7,3,.6,4.7,0,1.6-.3,3.2-.8,4.9l18.5,1c.8,0,1.5.1,2,.3.5.1,1,.4,1.4.7.6.4,1.1,1,1.4,1.7.3.7.5,1.4.5,2.1,0,.7,0,1.5-.2,2.3s-.5,1.4-1,2.1c-.4.6-.9,1.1-1.5,1.4-.5.3-1.1.5-1.7.6-.2,0-.4,0-.6,0-.2,0-.4,0-.6,0-.2,0-.4,0-.7,0-.2,0-.5,0-.8,0l-21.2-2-3.2,4.4,13.8,10ZM73,164.2c1-1.4,1.8-2.8,2.2-4,.5-1.3.6-2.5.6-3.6,0-1.1-.4-2.1-.9-3-.6-.9-1.3-1.7-2.2-2.4-.9-.7-1.9-1.2-2.9-1.4-1-.2-2-.2-3.1,0-1,.3-2.1.9-3.2,1.8-1.1.9-2.2,2.1-3.3,3.7l-3.1,4.2,12.7,9.3,3.2-4.4Z" fill="#fff"/>
      <path d="M120.7,146.3c1.1,1.1,1.6,2.2,1.6,3.4,0,1.2-.7,2.5-2,3.7-1.3,1.3-2.6,2-3.8,2-1.2,0-2.3-.5-3.4-1.6l-31.4-31.3c-1.1-1.1-1.7-2.3-1.7-3.5,0-1.2.5-2.4,1.7-3.5l8.1-8.1c2.6-2.6,5.1-4.6,7.5-5.9,2.4-1.4,4.7-2.2,6.9-2.4,2.2-.3,4.2,0,6.1.7s3.6,1.9,5.2,3.5c1.3,1.3,2.3,2.7,3.1,4.2.7,1.5,1.2,3,1.4,4.5s.2,3.1-.1,4.7c-.3,1.6-.8,3.1-1.6,4.7l18.1,3.8c.8.2,1.4.4,1.9.6s.9.5,1.3.9c.5.5.9,1.1,1.1,1.8s.3,1.4.2,2.2c0,.7-.3,1.5-.6,2.2-.3.7-.8,1.3-1.3,1.9-.5.5-1.1.9-1.7,1.1-.6.2-1.2.3-1.7.3-.2,0-.4,0-.6,0-.2,0-.4,0-.6,0-.2,0-.4,0-.7-.2-.2,0-.5-.1-.8-.2l-20.6-5.3-3.8,3.8,12.1,12ZM106.7,124.5c1.2-1.2,2.2-2.5,2.8-3.6.6-1.2,1-2.3,1.1-3.5.1-1.1,0-2.2-.4-3.1-.4-1-1-1.9-1.9-2.7-.8-.8-1.7-1.4-2.7-1.8-.9-.4-2-.5-3-.4-1.1.1-2.2.5-3.4,1.2-1.2.7-2.5,1.7-3.9,3.1l-3.7,3.7,11.1,11.1,3.9-3.9Z" fill="#fff"/>
      <path d="M120.7,91.1c-.5-.2-.9-.4-1.3-.5-.4-.2-.7-.3-1.1-.5-.3-.2-.6-.4-.8-.6s-.5-.5-.7-.7c-.5-.7-.8-1.4-.9-2.2-.1-.8,0-1.5.1-2.3.2-.7.5-1.4.9-2.1.4-.6.9-1.2,1.4-1.6.6-.5,1.2-.7,1.7-.8.6-.1,1.1-.1,1.5,0,.4,0,.9.2,1.4.4.5.2,1.2.5,2.1.9l15.7,7c.5.2,1.1.5,1.5.8.5.3.9.5,1.3.7.5.2.9.5,1.3.7h.1c-.1-.6-.2-1-.3-1.5-.1-.4-.2-.9-.3-1.5-.1-.6-.2-1.1-.3-1.7l-2.4-16.6c-.2-1-.3-1.7-.3-2.2,0-.5,0-1,0-1.4,0-.5.3-1.1.6-1.6.3-.5.7-.9,1.2-1.3.6-.4,1.2-.7,1.9-.9.7-.2,1.4-.3,2.1-.2.7,0,1.4.2,2,.5.6.3,1.2.7,1.6,1.3.4.5.7,1.1.8,1.8.1.6.2,1.4.3,2.4l2.9,28,9.8,13.1c.9,1.2,1.3,2.4,1.1,3.6-.2,1.2-1.1,2.4-2.6,3.5-1.5,1.1-2.8,1.6-4,1.4-1.2-.1-2.3-.8-3.2-2.1l-9.8-13.1-25.4-10.5Z" fill="#fff"/>
      <path d="M162.9,53c-.5-.8-.8-1.7-.9-2.6-.1-.9,0-1.7.2-2.5.2-.8.6-1.6,1.2-2.3.5-.7,1.2-1.3,2.1-1.8.8-.5,1.7-.8,2.6-.9.9-.1,1.7,0,2.5.3.8.3,1.6.8,2.3,1.4.7.6,1.4,1.5,2,2.5.7,1.2,1.2,2.5,1.6,3.7.4,1.3.6,2.5.8,3.7.1,1.2.2,2.3.2,3.5,0,1.1-.1,2.1-.2,3-.3,1.9-.7,3.5-1.4,4.9-.7,1.4-1.5,2.4-2.6,3-.9.5-1.7.6-2.4.5-.7-.2-1.3-.6-1.7-1.3-.3-.5-.4-1.1-.3-1.8,0-.6.2-1.4.4-2.3.2-.9.3-2,.3-3.2s-.1-2.7-.5-4.4c-.5,0-.9,0-1.5,0-.5,0-1.1-.2-1.6-.5s-1-.6-1.5-1.1c-.5-.5-1-1-1.4-1.8Z" fill="#fff"/>
      <path d="M193.7,50.6c-.9-2.1-1.3-4.2-1.3-6.3,0-2.1.5-4.1,1.4-6.1,1-2,2.4-3.8,4.4-5.5,1.9-1.7,4.4-3.2,7.4-4.5,1.5-.6,2.9-1.1,4.2-1.5,1.3-.3,2.5-.6,3.6-.7,1.1-.1,2.1-.1,2.9,0,.8,0,1.5.2,2.1.4.8.3,1.3.7,1.7,1.1.4.4.7.9,1,1.6.5,1.1.5,2.1.1,3-.4.9-1.1,1.5-2.1,2-.6.3-1.2.4-1.8.4-.6,0-1.4,0-2.2,0-.8,0-1.8.2-2.8.4s-2.3.6-3.8,1.2c-1.3.6-2.4,1.2-3.2,1.9-.8.7-1.5,1.4-1.9,2.2-.4.8-.6,1.6-.6,2.4,0,.8.2,1.6.5,2.5.5,1.2,1.3,2.1,2.3,2.6,1,.5,2.1.8,3.5,1,1.3.1,2.8.1,4.3,0,1.6-.1,3.2-.2,4.8-.3,1.6,0,3.3,0,5,0,1.7.1,3.3.5,4.8,1.1,1.5.6,3,1.5,4.3,2.8,1.3,1.3,2.4,3,3.4,5.1,1,2.2,1.4,4.5,1.4,6.7,0,2.2-.5,4.4-1.5,6.4-1,2-2.5,4-4.6,5.7-2,1.8-4.6,3.4-7.8,4.7-1.7.7-3.2,1.3-4.7,1.6-1.4.4-2.7.6-3.9.8-1.2.1-2.2.2-3.1,0-.9,0-1.6-.2-2.1-.4-.7-.3-1.3-.6-1.7-1-.4-.4-.8-1-1.1-1.7-.5-1.1-.5-2.1-.1-3s1.1-1.5,2.1-2c.6-.3,1.2-.4,1.9-.4.6,0,1.4,0,2.3,0,.9,0,1.9-.2,3.1-.4,1.2-.2,2.7-.7,4.4-1.5,1.5-.6,2.7-1.3,3.6-2.1.9-.8,1.6-1.6,2.1-2.5.5-.9.7-1.8.7-2.7,0-.9-.2-1.9-.6-2.8-.6-1.3-1.3-2.2-2.3-2.8-1-.6-2.2-.9-3.5-1.1-1.3-.2-2.8-.2-4.4,0-1.6.1-3.2.2-4.8.3-1.7,0-3.3,0-5,0-1.7,0-3.2-.4-4.7-1-1.5-.6-2.9-1.4-4.2-2.6-1.3-1.2-2.4-2.8-3.2-4.9Z" fill="#fff"/>
      <path d="M283.1,56.3c.3,1.5,0,2.8-.7,3.8-.7,1-2,1.7-3.8,2-1.8.4-3.2.2-4.3-.4-1-.6-1.7-1.7-2-3.2l-8.5-43.5c-.3-1.5-.1-2.8.6-3.8.7-1,1.8-1.7,3.4-2l23.3-4.6c1.1-.2,2.1,0,2.8.5.8.6,1.3,1.5,1.6,2.9.3,1.4.2,2.5-.3,3.3-.5.8-1.3,1.4-2.4,1.6l-17.4,3.4,2.8,14.4,14.4-2.8c1.1-.2,2,0,2.8.5.8.6,1.3,1.5,1.6,2.9.3,1.4.1,2.4-.4,3.3-.5.8-1.3,1.3-2.4,1.5l-14.4,2.8,3.4,17.4Z" fill="#fff"/>
      <path d="M308.7,29.4c-.2-4.5.3-8.5,1.5-12,1.2-3.6,2.8-6.6,5.1-9.1,2.2-2.5,5-4.5,8.2-5.9,3.2-1.4,6.8-2.2,10.7-2.3,3.8-.1,7.3.4,10.5,1.5,3.2,1.1,5.9,2.8,8.2,5.1,2.3,2.3,4.1,5,5.4,8.3,1.3,3.3,2.1,7,2.2,11.3.2,4.5-.3,8.5-1.5,12-1.2,3.6-2.8,6.6-5.1,9.1-2.2,2.5-4.9,4.5-8.1,5.9-3.2,1.4-6.8,2.2-10.7,2.3-3.8.1-7.3-.4-10.5-1.5-3.2-1.1-5.9-2.8-8.2-5-2.3-2.2-4.1-5-5.5-8.3-1.3-3.3-2.1-7-2.2-11.3ZM319.9,28.2c.1,3.1.6,5.9,1.5,8.2s2,4.3,3.4,5.9c1.4,1.6,3,2.7,4.8,3.5,1.8.8,3.8,1.1,5.8,1,2.1,0,4-.5,5.7-1.4,1.8-.9,3.3-2.1,4.6-3.8,1.3-1.6,2.2-3.7,2.9-6,.7-2.4,1-5.1.9-8.3-.1-3.1-.6-5.9-1.4-8.2-.8-2.4-2-4.3-3.4-5.9-1.4-1.6-3-2.7-4.9-3.5-1.8-.8-3.8-1.1-5.8-1-2.1,0-4,.5-5.7,1.4-1.8.9-3.3,2.1-4.5,3.8-1.3,1.6-2.3,3.6-2.9,6-.7,2.4-1,5.2-.9,8.3Z" fill="#fff"/>
      <path d="M377.5,5.8c.2-1.5.8-2.6,1.9-3.3s2.4-.9,4.3-.6,3.1.9,3.9,1.8c.8,1,1,2.2.8,3.7l-4,26.7c-.4,2.5-.4,4.7-.1,6.6.3,1.9.8,3.5,1.6,4.8.8,1.3,1.9,2.3,3.2,3.1,1.3.7,2.7,1.2,4.4,1.5,1.5.2,3,.2,4.3-.1,1.4-.3,2.6-1,3.7-1.9,1.1-.9,2-2.2,2.8-3.7s1.3-3.4,1.7-5.7l4.1-27.9c.2-1.5.8-2.6,1.8-3.3,1-.7,2.4-.9,4.2-.6s3.1.9,3.9,1.8c.8,1,1,2.2.8,3.7l-4,26.9c-.6,3.8-1.5,7-3,9.7-1.4,2.7-3.2,4.8-5.3,6.5-2.1,1.6-4.7,2.7-7.5,3.2-2.9.5-6,.6-9.5,0-3.5-.5-6.5-1.4-9-2.7-2.5-1.3-4.5-3-6.1-5s-2.6-4.5-3.1-7.3c-.5-2.8-.5-6,0-9.5l4.2-28.1Z" fill="#fff"/>
      <path d="M440,19.5c.8-2.4,2-3.9,3.6-4.7,1.6-.8,3.6-.7,6,.1,1.1.4,2,.8,2.7,1.3.7.5,1.3,1.1,1.7,1.8s.8,1.4,1.1,2.3c.3.9.5,1.8.7,2.8l7,31.5c.2,1.1.4,2.2.6,3.3.2,1.1.3,2,.4,2.8.1,1,.2,1.9.3,2.8h.2c.2-.9.5-1.9.7-2.9.2-.9.5-1.8.8-2.9.3-1.1.6-2.2,1-3.4l8.4-25.9c.4-1.3,1.1-2.1,2.2-2.6s2.4-.4,3.9.1c1.6.5,2.6,1.3,3.1,2.3.5,1,.5,2.1.1,3.4l-13.9,40.3c-.8,2.4-2,4-3.6,4.7s-3.6.7-6-.1c-1.1-.4-2-.8-2.7-1.3-.7-.5-1.3-1.1-1.7-1.8-.5-.7-.8-1.4-1.1-2.3-.3-.9-.5-1.8-.7-2.8l-7-31.4c-.2-1.1-.5-2.2-.6-3.3-.2-1.1-.3-2-.4-2.8-.1-1-.2-1.9-.3-2.8h-.2c-.2.9-.5,1.9-.7,2.9-.2.9-.5,1.8-.8,3-.3,1.1-.6,2.2-1,3.4l-8.4,25.9c-.4,1.3-1.1,2.1-2.2,2.6s-2.4.4-3.9-.1c-1.6-.5-2.6-1.3-3.1-2.3-.5-1-.5-2.1-.1-3.4l13.9-40.3Z" fill="#fff"/>
      <path d="M503.4,41.3c.8-1.4,1.7-2.2,2.9-2.5,1.2-.3,2.5-.1,3.8.7l11.4,6.5c3.9,2.2,7,4.6,9.4,7.4,2.4,2.7,4.1,5.6,5,8.7.9,3.1,1.1,6.3.6,9.6s-1.8,6.8-3.8,10.3c-2.2,3.8-4.7,6.9-7.5,9.3-2.8,2.4-5.9,4-9.2,4.9-3.3.9-6.9,1-10.6.4-3.7-.6-7.5-2-11.5-4.3l-10.4-5.9c-1.4-.8-2.2-1.8-2.5-2.9-.3-1.2,0-2.5.7-3.8l21.7-38.2ZM498.6,85.1c2.3,1.3,4.5,2.1,6.7,2.4,2.2.3,4.3.2,6.4-.5,2.1-.6,4-1.8,5.8-3.5,1.8-1.7,3.5-3.8,5.1-6.5,1.5-2.7,2.5-5.2,3-7.5.5-2.3.5-4.5,0-6.5s-1.5-3.8-3-5.5c-1.5-1.7-3.4-3.2-5.8-4.6l-5.7-3.2-18.3,32.2,5.7,3.2Z" fill="#fff"/>
      <path d="M533.6,111.9c-.8.5-1.5.9-2.1,1.3s-1.2.5-1.7.5c-.5,0-1.1,0-1.6-.2-.6-.2-1.2-.5-1.8-1-.5-.4-1-.9-1.4-1.5s-.7-1.2-.8-1.8c-.2-.6-.2-1.3-.1-2,0-.7.4-1.3.8-1.8.3-.3.6-.6.9-.9.4-.2.9-.6,1.7-1.1l35.5-21.9c.6-.3,1.1-.6,1.6-.9.5-.3.9-.5,1.4-.7.4-.2.9-.3,1.3-.4.4-.1.8-.2,1.3-.2,1,0,1.9,0,2.9.4,1,.4,2.1,1,3.2,2,1.2.9,2,1.9,2.6,2.8s.9,1.8,1,2.8c0,.4,0,.9,0,1.3,0,.4,0,.9-.2,1.3,0,.5-.2,1-.4,1.5-.2.5-.3,1.1-.6,1.7l-14.1,39.1c-.3.9-.6,1.5-.8,1.9-.2.4-.4.7-.6,1-.5.6-1.1,1.1-1.8,1.3s-1.3.3-2,.3-1.4-.2-2.1-.5c-.7-.3-1.3-.6-1.8-1.1-.6-.5-1-1-1.4-1.6-.3-.6-.5-1.1-.6-1.7,0-.5,0-1.1.2-1.7.2-.6.4-1.3.8-2.2l3-8-15.3-12.5-7.1,4.6ZM559.3,111.8l5.8-15.2c.4-1.1.8-2,1.1-2.9.4-.9.7-1.7,1-2.4.3-.8.6-1.6,1-2.2h-.1c-.6.4-1.3.8-2,1.3-.6.4-1.3.9-2.1,1.5-.8.6-1.6,1.1-2.6,1.7l-13.5,8.8,11.4,9.3Z" fill="#fff"/>
      <path d="M593,109.4c-.8-.9-1.2-1.8-1.1-2.8,0-1,.6-2,1.7-3s2.1-1.5,3.1-1.5c1,0,1.9.4,2.7,1.3l24.1,26c.8.9,1.2,1.8,1.1,2.8,0,1-.6,2-1.7,3-1.1,1-2.1,1.5-3.1,1.5-1,0-1.9-.4-2.7-1.3l-8.4-9-29.7,27.6c-1.1,1-2.3,1.5-3.5,1.4-1.2,0-2.5-.8-3.7-2.2s-1.9-2.7-1.9-3.9c0-1.2.6-2.3,1.7-3.4l29.7-27.6-8.4-9Z" fill="#fff"/>
      <path d="M630.8,146.5c1.2-.9,2.5-1.3,3.7-1,1.2.2,2.3,1.1,3.4,2.6,1.1,1.5,1.6,2.9,1.4,4.1-.1,1.2-.8,2.3-2.1,3.2l-36.1,26.5c-1.2.9-2.5,1.3-3.7,1-1.2-.2-2.3-1.1-3.5-2.6-1.1-1.5-1.6-2.8-1.4-4,.1-1.2.8-2.3,2.1-3.2l36.1-26.5Z" fill="#fff"/>
      <path d="M627.2,179.9c3.9-2.1,7.7-3.5,11.4-4,3.7-.6,7.2-.4,10.5.5,3.3.9,6.2,2.4,8.9,4.7,2.7,2.2,5,5.1,6.9,8.6,1.8,3.4,3,6.7,3.4,10.1.4,3.3.1,6.5-.8,9.6-1,3.1-2.6,5.9-5,8.6s-5.4,5-9.1,7c-3.9,2.1-7.7,3.5-11.4,4-3.7.6-7.2.4-10.4-.5-3.3-.9-6.2-2.4-8.9-4.6-2.7-2.2-5-5.1-6.9-8.6-1.8-3.4-3-6.7-3.4-10.1-.4-3.3-.2-6.5.8-9.6,1-3.1,2.6-5.9,5-8.6,2.3-2.7,5.4-5,9.1-7ZM633.2,189.3c-2.7,1.5-5,3.2-6.7,5s-3,3.7-3.7,5.7-1.1,3.9-.9,5.9.7,3.9,1.7,5.7c1,1.8,2.3,3.3,3.8,4.5,1.6,1.2,3.4,2,5.4,2.4,2,.4,4.3.4,6.7,0,2.4-.5,5-1.4,7.8-2.9,2.7-1.5,5-3.2,6.7-5,1.7-1.8,3-3.7,3.7-5.7.8-2,1.1-3.9.9-5.9-.1-2-.7-3.9-1.7-5.7-1-1.8-2.3-3.3-3.8-4.5s-3.4-2-5.4-2.4c-2-.4-4.3-.4-6.7,0-2.4.5-5,1.4-7.8,2.9Z" fill="#fff"/>
      <path d="M676.8,232.3c2.4-.8,4.3-.7,5.9,0s2.7,2.4,3.5,4.9c.4,1.1.5,2.1.5,3,0,.9-.1,1.7-.4,2.4-.3.8-.7,1.5-1.2,2.2-.5.7-1.1,1.5-1.8,2.3l-21,24.4c-.8.9-1.5,1.7-2.3,2.4-.8.8-1.4,1.4-2,2-.7.7-1.4,1.3-2,1.9v.2c1-.4,1.9-.7,2.8-1.2.8-.3,1.8-.7,2.8-1.1,1.1-.4,2.2-.8,3.4-1.2l25.8-8.7c1.2-.5,2.4-.4,3.4.2,1,.6,1.8,1.6,2.2,3.2.5,1.6.5,2.8,0,3.8-.5,1-1.4,1.7-2.7,2.1l-40.6,12.9c-2.4.8-4.4.7-5.9,0-1.5-.8-2.7-2.4-3.5-4.9-.4-1.1-.5-2.1-.5-3,0-.9.1-1.7.4-2.5.3-.8.7-1.5,1.2-2.2.5-.7,1.1-1.5,1.8-2.3l21-24.4c.8-.9,1.5-1.7,2.3-2.5.8-.8,1.4-1.4,2-2,.7-.7,1.4-1.3,2-1.9h-.1c-.8.2-1.7.6-2.7,1-.8.3-1.8.7-2.8,1.1-1.1.4-2.2.8-3.3,1.2l-25.8,8.7c-1.2.5-2.4.4-3.4-.2-1-.6-1.8-1.6-2.2-3.2-.5-1.6-.5-2.8,0-3.8.5-1,1.4-1.7,2.7-2.1l40.6-12.9Z" fill="#fff"/>
    </g>
  </g>
  <g id="Text_COLLAR_outline">
    <g>
      <path d="M370.1,581.8c-.6-.3-.9-.7-1.2-1.4-2.2,0-4.3-1-4.9-.9-.3-.7-.5-.8-.7-.8,0,.2-.4.3-.4.5.3,0,.3.3.4.6,0,.3-.3.4-.4.7-1.1.7-3.2,2-3.1,2.7-.4.2-.4.5-.4.9,0,.6-.8,1.3-1.2,3.4-.2,1,0,2.7.1,3.7.3,2.2,1,4.7,2.4,6.3.3,0,.6.7,1,.7.6,0,1.4.2,2.2,0,1.9-.3,3.1-1.8,4-2,0-.3.7-1.6,1-1.7.3,0,.5-1.4.9-2.1.3-.6.7-1.4,1.1-2.7.1-.5,0-1.4.2-1.5-.1-1.5,0-2.7-.2-4.2-.1-.8-.3-1.6-.8-2.4Z" fill="#fff"/>
      <path d="M212,557.1c-.6-.2-4-1.5-4.5-1.7-.2,0-1.2-.5-1.4-.7-.6,1.1-1.9,4.9-2.7,6.9,1.8.7,1.8.8,2.2.9.4.1,2.6.7,3,.8,1.9.7,4.2.2,5.6-1.8,0-.4.6-1.7.3-2.5-.9-1-1.8-1.7-2.5-1.9Z" fill="#fff"/>
      <path d="M338.7,580.9c0-.2-.1-.3-.4-.3,0,.1-.2.2-.4.3-1.4-.2-2.8-.4-4.1-.5-1,0-1.8.2-2.8.9.1.5.2,1,.2,1.4,0,1.4-.6,2.8-.6,5,0,1.1-.1,1.6-.1,2.7,0,.7,0,1.6,0,2.3.2.4.3.9.3,1.3,0,.7,0,2.8-.1,3.3.9,0,1.5.5,2.4.7.3,0,.6,0,.8,0,1.6,0,3.6-1,5.1-.9.5,0,1.1-.5,1.4-.6,2.2-1.4,1.9-4,3-6.2,0-1.2.1-2.1.3-3.2-.2-3.5-2.3-5.2-5.1-6.2Z" fill="#fff"/>
      <path d="M434.2,554.8c-9.1,2.9-36.9,5.1-47.4,6.1-74.1,6.8-129.5-2.2-195.5-35.5-14.6-7.3-28.9-16-43.1-24l-.7-1.8c2-14.1,3.6-28.4,5.5-42.5.3-2.5-1.4-5,1.8-7.2,10,6.1,22.8,17.1,35,17.1,13.6,0,47.2-24.1,52.3-36.8,6.2-15.5.5-37.4-3.3-53.3-7.3-30.3-20.3-56.9-17.5-89.5.5-6,4.2-17.4,3.9-22-.3-4.3-3.1-6.2-5.8-1.9-10.1,16-10.5,52.6-7,70.7,4.6,24.4,20.3,57.9,17.9,82.1-1.3,13.1-13.8,22.1-24.3,28.7-8.2,5.2-15.5,8.9-25.1,4.7-6.8-2.9-22.8-15.4-29.5-20.5-15.3-11.5-33-26-46.6-39.4-4.7-4.6-17-17.1-19.7-22.3-7.6-14.6,15-29.9,23.7-39.7,21.4-24.1,36.9-45.1,61.9-66.6,1.8-1.5,20.2-13.5,11.1-14.5-5.4-.6-21.8,9.8-26.8,13.2-23.2,16.2-32.3,31.9-50.2,51.8-13.8,15.4-34.7,28-37.1,50.4,1.8,4.4,2.1,7.8,4.4,12.2,5.5,10.2,25.8,28.5,35.2,36.8,10.2,9.1,21.3,17.5,31.8,26.2,3.8,7.2-2.7,35.3-3.7,44.9-.2,1.4.8,2.9.6,4.6-2.1,20.1-4.9,40.3-7.8,60.3l.5,3.4c39.9,30.6,85.5,51.1,135.3,59.7,37.1,6.4,76.2,7.7,113.7,4.3,16.1-1.4,32.1-4.5,48-7.1h.1c.2,0,.5,0,.7-.1,0,0,.1,0,.2,0l-.5-.9c-6-12.6-4.2-37.5,7.8-51.9ZM169.3,534.8c-1.9-1.1-2.9-.9-3.3-1-1-.2-2,.6-2.8,1.6-.2,0-.4.3-.5.3,0,0,0,.3-.1.4-.2.3-.2.3-.2.7.1.7.4,1.4.8,1.8.2.1.5.9.9,1.2s.6.4,1,.7c.6.5,1.3,1.4,2.1,2.2.4.4.7,1.3,1.3,1.8.4,1.6,1.7,3.5-.5,7.2s-2.8,2.2-3,2.5c-.5,0-2.1,1.1-3.4.8-.9,0-1.5.1-2.1,0-.2-.1-1-.5-1.3-.4-1-.5-1.3-.6-2.1-1-1.9-1.1-3.2-2.2-4.4-4.1-.5-1.2-1-3.2-1.3-3.5,1.6-.5,2.5-1.4,4.2-.8.5,1.6,1.3,3.8,3.1,4.8s1.1.4,1.2.5c.4.2,1,.4,1.7.4,1.2.1,2.1-.6,3.4-2,.4-.7.6-1.4.5-1.8,0-.2-.2-.4-.2-.7,0,0-.4-.5-.4-.6-.9-1.3-2.8-2.5-3.7-3.7-.4-.6-1.7-2.3-2.1-3.7-.5-1.7-.9-2.9.3-5s.3-.1.4-.3c.2-.4,1.3-1.4,2.2-1.9,1.1-.7,3.7-1.1,4.1-1.3.3.2,3.1,0,3.8.4s1.2.5,2.6,1.3,1.1.7,1.6,1.3c.5.5.6,1,.8,1.3.8,1,1.2,1.1,1.7,2.2.2.5,0,1.8.3,2.3-1.1,1.6-2.4,2-4,1.3.2-.8-.6-4.2-2.6-5.4ZM191.9,548.3c-.7-.4-1.1-.9-1.4-1.1-.5-.3-.9-.4-1.6-.6-.5-.2-1.1-.5-1.5-.8-.7-.4-1-.7-1.3-.9-.6.2-2.5,3.6-3.4,4.7.4.4.7.7,1.6,1.2s1.4.8,2.2,1,1.4.2,2,.6c1.2.7,2.1,1.2,2.8,1.8.1,1.3-.2,1.5-1.2,3.4-.7,0-1.3-.3-1.9-.7s-1-.7-1.5-1c-1.2-.7-2.5-.7-3.5-1.3-2.3-1.3-2.5-1.3-3-1.1-.4.3-1.3,1.4-2.1,2.8s-1.2,2.1-1.3,2.8c.3.3.5.4.9.6,2.5,1.4,5,1.5,7.8,3.2s1.8,1.2,2.6,2.2c-.2.6-.3,1.1-.7,1.8s-.6.9-1.1,1.3c-.6.1-1.1,0-1.5-.3-.9-.5-1.8-1.4-2.9-2-1.9-1.1-3.5-1.9-5.4-1.9-.3-.4-.6-.7-.9-.9-.8-.5-1.7-.6-2.4-1-1.3-.8-1.8-2-1.7-3.6,1.4-2.2,2.7-4,4-6.2s1.5-2.6,2.3-4c1.1-1,2.7-3.5,3.4-4.7,1.1-1.8,3.2-3.9,4.2-4,.4.2.7.2.9.1,1.1,1.1,1.9,1.7,2.5,2,1.9,1.1,5.7,2.3,7.3,3.2s2.1,1.5,2.7,2.8l-1.3,2.3c-.9.4-1.7.1-2.4-.3s-.6-.4-.8-.8c-.5,0-1.9-.4-2.3-.7ZM218.7,562.4c-1.2,3.2-3.4,4-3.6,4.5-.8,0-2,.6-2.1.8-.2-.1-.3-.2-.5-.2-.4-.2-2.9,0-5.1-.9,1.1,1.2,1.9,2.8,1.8,3.1,2.7,1,2.8,5.4,5,7.4,0,.9,0,1.6-.2,2.2-.5,1.5-1.5,1.5-2.8,1-.5-.2-1-.5-1.4-.9.2-1.5-1.7-4.9-2.1-5.1.1-.4-1.3-2.2-2.4-3.8-.2-.2-.4-.7-.4-1-.3,0-.6-.5-.8-.8-.6-.8-1.1-3.3-2.1-4.1-.7,1.9-2.1,5.8-3,9.2-.4.1-.6.7-.9,1-.5.1-1.3,0-1.9-.2-.6-.2-1.8-.8-1.9-1.3.4-1,.5-1.7.5-1.9.2-.4.5-1.1.8-2,.3-.8.7-1.5.9-1.7.1-.8.4-1.5.6-2.3.4-1.2,1.1-2.2,1.4-3.3l.8-2c0-.2.3-.6.4-1,0-.3.1-.6.3-1.2.1-.4.8-1.8,1-2.2.1-.3.8-2.4.9-2.8-.5-.3-1.6-1.1-1.3-1.9.4-1.1,1.4-1.6,1.5-1.9.3,0,.7.1,2.5.8,2,.8,2.1,1.2,3.5,1.7,1.8.7,3,1.1,3.2,1.3.5.2,1.9.8,2.8,1.2.4.1.8.3,1.2.5.5.3,1.7.8,2,1.1,1.4,1.3,1.7,3,2.1,3.9-.1.5-.6,2-.8,2.5ZM238.6,572.8c-.1.4-.4.9-.7,1-.4-.1-3.7,3.9-4.4,3.7-.3,1-1.6,1.8-1.7,2.2-.2,0-2.6,3.2-2.9,3.7-.1.4-1.2,1.3-1.9,2.3-.3-.1-.9.1-1.4,0-1-.3-1.4-1.7-1.8-3-.4-1.3-.5-5.5-.3-5.9.2-.6,0-.8,0-1.3,0-.7.2-1.6.2-2.4,0-.9.2-3,.3-3.3,0-.3,0-1.4,0-1.7,0-1.3-.4-4.2-.2-5.6,0-1.2-.3-1.9-.5-2.9.7-1.9,1.6-2.2,2.8-1.8,1.2.4,1.9,1.6,1.7,2.4-.2.6,0,.9,0,1.3,0,.5.2,1.4.3,1.9.1.9.1,3.3,0,3.7-.2.5,0,1.1-.2,1.5,0,.2.1.7.2,1.1-.9,3.3,0,6.2-.8,9.5.3,0,1.7-2.2,2.5-3,.8-.8,2.2-2.6,2.9-2.7.3-1,2.6-2.8,4.1-4.3,1.3-1.2,2.8-3.5,4.5-4.7.7,0,1.6,0,2.1.2.5.2.8.3,1.4,1.5,0,.2,0,.7,0,.8-.2.5-.5.8-.8,1.2-.9,1.1-1.6,1.8-2.6,2.7-1,.9-2.2,2-2.5,1.9ZM252.1,571.6c-.3,1.1-.6,1.5-.9,2.6l-2.5,8.3c-.2.7-.6,1.4-.8,2.3-.4,1.2-.7,2.4-.8,3.2l-1.5,4.4c-.5.1-1.2,0-1.6-.1-.5-.1-1.2-.4-1.6-.7-.3-.1-.5-.3-.8-.5-.2-.7,0-1.4.2-2,.4-1.5,1-3.1,1.6-4.5.7-2.4,1.3-4.7,2.1-7,.6-1.9,1.2-3.9,1.8-5.8,0-.2,0-.4.1-.7.2-.8.4-1.7.5-2,.2-.7.7-1.3.9-2.1h.5s.3-.4.3-.4c1.2.7,2.6.8,3,1.6.3.8-.3,2.3-.4,3.3ZM277.8,577.3c-.8,1.2-2,1.4-2.7,1.2-1.9-.4-1.9-2.7-5.7-3.5-1.3,0-2.5,0-3.6.5-1.4.5-2.9,1.8-3.9,3.1-.8,1.1-1.5,2.8-1.8,4.5-.1.5-.2,1.1-.2,1.7.2,1.1.5,2.6,1,3.4.9,1.7,1.8,3.2,4.4,3.8.5.1,1.3,0,2.2.2,3.3,0,4.6-1.7,6.7-1.9,1,.6,2.1,2.3,1.8,3.6,0,.3-.2.5-.3.7-.6,1.4-1.8,1.3-3.5,1.6-.6,0-.8.5-1.4.6-1.9.2-4.3-.3-5.5.2-.2-.3-1.6-.7-3.6-1.1-1.4-.3-2.2-2.1-3.4-3-1.3-.9-1.8-3.2-2.8-4.7v-2.6c-.4-.5-.4-1.5,0-3.3.6-3,1.9-4.4,2.7-6.5,1.5-1.2,3.3-2.3,4.5-3.6,1.6,0,4.7-1.9,8.6-1,2,.4,4.9,1.8,6,3.3,1,.4,1.3,1.2.9,3ZM303.1,580c-.7.7-1.5.7-2.4.6-.3,0-.7-.2-1-.4-.4.3-1.9.3-2.4.2-.8-.1-1.3-.4-1.7-.5-.6,0-1,0-1.7,0-.6,0-1.2,0-1.7-.1-.8-.1-1.2-.2-1.5-.4-.5.4-1,4.3-1.4,5.6.5.2.9.4,2,.5.8.1,1.6.2,2.5.2.7,0,1.4-.3,2.1-.2,1.3.2,2.4.4,3.3.6.6,1.2.4,1.4.1,3.6-.7.2-1.4.2-2,0-.6,0-1.2-.2-1.8-.3-1.4-.2-2.6.3-3.8.1-2.6-.4-2.8-.3-3.2,0-.3.4-.7,1.8-.9,3.4-.1.8-.3,2.4-.2,3.1.4.1.6.2,1.1.3,2.8.4,5.2-.4,8.4,0,1,.2,2.2.5,3.2,1.1,0,.6.1,1.2,0,1.9,0,.6-.2,1.1-.6,1.6-.5.3-1,.4-1.5.3-1.1-.2-2.2-.6-3.4-.8-2.2-.3-3.9-.5-5.8.2-.4-.3-.8-.4-1.2-.5-.9-.1-1.8,0-2.6,0-1.5-.2-2.4-1.2-2.9-2.8.5-2.5,1.1-4.8,1.4-7.3.2-1.4.4-2.9.7-4.6.7-1.3,1.2-4.2,1.4-5.7.3-2.1,1.6-4.8,2.4-5.3.5,0,.8,0,.8-.2,1.4.6,2.3.9,3,1,2.1.3,6.1,0,7.9.3,1.3.2,2.5.7,3.6,1.6l-.4,2.6ZM348.1,590.2c0,1.1-.5,2.9-.6,3.3-1.6,1.9-1.9,4.2-3.4,5.9-1.7.2-3.5,2.1-4.9,2.1-.5,0-1.4.1-1.8.1-.4,0-1.3.3-1.7.4-2,.3-4.7.4-8,.4-.3-.6-.9-1.8-1.2-3.3-.1-.9-.1-3.3-.1-4.5,0-1.8.2-4.5.2-5.9,0-1,0-1.4.3-1.5-.1-1.1-.2-2.2-.1-3.4,0-.8.1-1.7.4-2.5-.5-.8-.9-1.1-1.7-1.3-.1-.2-.3-.4-.3-.5,0-.4-.4-.7-.4-1.8,0-.2.3-.5.3-.8.7-.4,1.7-.5,2.8-.4.8,0,1.6.1,2.6.1,1,0,2.1,0,3.1-.3.6.2,1.3.3,1.3.7.3-.3.8-.3,1.7-.3.8,0,1.8.2,2.6.3.8.2,2.3.3,3.3.8.3.1.3.5.5.5.2,0,.5.1.7.3.2.1.4.6.8.8.7.4,1.9,1.3,2.9,2.9.4.6,1,2.5,1,3,0,1.5-.3,4.1-.3,4.8ZM375.2,587.5c-.2,0-.4,0-.6,0,.2.2.3.4.4.6.1.8-.2.8,0,1.4-.7.7-.4,2.3-.6,3.4-.4,0-.4.6-.3,1.1-.2.9-.6,1-1.1,1.8-.3.4-.4,1-.6,1.5,0,0-.6.3-.6.4-.1.2-1.2,1.6-1.4,1.8-.6.5-1.5.8-1.7,1.2-.6,0-1.4.5-1.8.5-.4,0-1.4.2-1.5.4-1,.6-1.9.4-2.3.8-.3-.2-1.4,0-1.9-.1-.5-.2-1.3-.5-1.4-.6-.5-.4-.8-.3-1.7-1.2-.4-.2-.8-.4-1.2-.8-.2-.3-.9-1.4-1.2-1.3-.2-.6-.2-1.3-.6-2.2-.4-.7-.5-1.1-.7-2.5-.1-.9-.6-2.4-.8-3.6-.1-1.1.5-3.6.4-4.6.6-.3,1.5-3,1.6-3.6,1.1-.4,2.8-4.9,5.2-5.2.9-.1,1.6.3,2.2.8.4-1.2.8-1.2,1.4-2,2.4-.3,4.7,1.2,7.1,1.2,1.3,1.3,1.8,3.2,3.4,4.8.1,1,.5,4,.3,6ZM405.6,588.1c0,.7-.4,1.3-.4,2,0,1.8-1.4,4.7-1.7,4.7-.2,0-.4,0-.6-.1,0,.6-.3.4-.2,1.1-.8.4-1.4.7-2.3,1.2-.6.4-1.1,1-1.9,1.3-1.8.6-3.5.5-5.1,1.1-.7,0-1.3,0-1.9-.2-.3.1-.8.2-1.2.2-1.2,0-4.1-2.6-5.3-2.7-.1-.6-1.5-1.8-2.1-3-.5-.9-1.7-3.7-1.8-6.1-.1-2.3.4-5.4,1.7-7.9.2-.3.8-.9,1-1.2.3-.6,1.1-1.9,2-2.4,1.6-.9,2.6-2.2,4.9-2.9.7-.2,2.2-.5,2.9-.5,4.3-.2,4.9,1.4,6.8,1.6.3.7,1,1.7,1.4,2.4-.8,1-.9,2.1-2.7,2.2-1.4,0-2.8-1.4-5.2-1.8-.6.3-1.8.2-2.7.7-3,1.3-3.8,3.8-4.5,4.3-.5,1.4-.8,3.2-1.1,3.4.2.2.2,1,.2,1.6,0,.7,0,1.2,0,2.1,0,.6,1.5,2.3,2.3,3.7.9,0,1.1,1.8,2.1,1.8.6,0,.9.5,1.9.5.4,0,.8.1,1.2.1.2,0,.4-.2.6-.2,1-.3,2.2-.7,3.1-.7.3,0,.7-.2.9-.2,1.7-1.7,3.2-2.5,3.1-5.3-.6-.6-2.4-.7-4.1-.7-.3,0-1,0-1.4,0-1.9,0-2.8,0-3.7-1.8.5-.9,1-1.4,1.6-2.1.8,0,1.2,0,2.1,0,1.2,0,2.1-.2,3.7-.3,1.9-.2,3.4-.3,4.9-.4.8,0,1.3,0,1.8.6.3.4.4,1.3.8,2,0,1.3-.4,1.2-1,2Z" fill="#fff"/>
    </g>
  </g>
  <g id="Layer_5" display="none">
    <image width="778" height="772" transform="translate(-42.7 -24.1)" xlink:href="corry-logo.whiteout-2.png"/>
  </g>
</svg>